<?xml version="1.0" encoding="UTF-8"?><svg xmlns="http://www.w3.org/2000/svg" id="uuid-3a28d951-e4e5-4a9d-bec0-04ebd6ae62f5" viewBox="0 0 363.7564 359.55775"><defs><style>.uuid-9267784c-5951-47e0-adad-2ace25356627{fill:#e95e25;}.uuid-5d12af30-db6c-4d2c-a786-2066affc3c28{fill:#fff;}.uuid-c52648e2-9379-41ee-a4d3-33b1a036a214{fill:#8d183d;}.uuid-2dcf8181-9646-41d7-864f-34b84dc93793{fill:#234a85;}.uuid-b5b6453a-77f6-4151-ad6d-0c7f9bb17955{fill:#3f978e;}.uuid-0da877df-b4f5-4cf9-9662-0d359491671f{fill:#2989b3;}.uuid-5d54a3f0-ffde-4390-ae69-95c027b48b9f{fill:#4b1a63;}.uuid-810f902c-c5fa-4e0f-a608-347b7d08843b{fill:#383d3f;}.uuid-56403fde-1c9f-4d1a-8731-9592522871c9{fill:#5f9c44;}.uuid-5c5413fe-c794-465a-af53-c433a071655d{fill:none;stroke:#bcbec0;stroke-dasharray:0 0 0 3.164;stroke-linecap:round;stroke-linejoin:round;stroke-width:1.06px;}</style></defs><path class="uuid-5d54a3f0-ffde-4390-ae69-95c027b48b9f" d="m312.96964,72.94728l-8.48928,6.92329c8.52458,11.32016,15.56721,23.95625,20.77213,37.68893-4.80599,2.96263-8.46259,7.78072-9.79878,13.72417-2.63156,11.70533,4.72418,23.32768,16.42945,25.95923.90085.20253,1.80056.33892,2.69635.4257,1.32963,13.96573.71966,27.78385-1.65518,41.1402l10.70298,2.33346c2.64818-14.66956,3.31441-29.86297,1.78434-45.21751,6.08387-2.68823,10.85976-8.12374,12.4307-15.11138,2.63155-11.70527-4.72413-23.32761-16.42946-25.95917-1.90961-.42931-3.81626-.58827-5.6828-.51044-5.65223-15.11168-13.3719-28.99702-22.76044-41.39649Z"/><path class="uuid-5d54a3f0-ffde-4390-ae69-95c027b48b9f" d="m232.99577,134.34466l-6.54817,5.24571c4.26134,5.83891,7.43981,12.61466,9.16164,20.10541,1.72112,7.48803,1.82095,14.96895.53826,22.0802l8.18167,1.85878c1.5503-8.30663,1.46867-17.05723-.54504-25.81804-2.01445-8.76392-5.76396-16.67443-10.78837-23.47206Z"/><path class="uuid-56403fde-1c9f-4d1a-8731-9592522871c9" d="m23.26285,214.32766c3.96964,14.92922,10.10628,29.46341,18.45305,43.13696-2.196,2.58925-3.81959,5.72921-4.61589,9.27123-2.63156,11.70533,4.72419,23.32762,16.42946,25.95917,5.25495,1.1814,10.49036.34491,14.90584-1.98934,11.23161,10.7701,23.71292,19.67758,37.01214,26.6731l4.74677-9.87259c-12.07071-6.3899-23.41031-14.47662-33.65468-24.206,1.35481-2.09441,2.37004-4.45891,2.9491-7.03464,2.63155-11.70527-4.72413-23.32761-16.42946-25.95917-4.28317-.96293-8.55314-.58377-12.37767.85156-7.52804-12.46402-13.08982-25.68737-16.73746-39.26175l-10.68119,2.43146Z"/><path class="uuid-56403fde-1c9f-4d1a-8731-9592522871c9" d="m120.787,188.76357c2.22753,8.15114,6.11729,15.99015,11.75014,22.9957,5.6349,7.00808,12.45888,12.49143,19.94492,16.41733l3.60489-7.57635c-6.38122-3.39595-12.1965-8.10714-17.01274-14.09713-4.81454-5.9878-8.16691-12.67628-10.11393-19.63505l-8.17327,1.8955Z"/><path class="uuid-9267784c-5951-47e0-adad-2ace25356627" d="m187.51317,309.58827c-11.02868-2.47944-21.98043,3.90889-25.41122,14.44599-14.42222-1.86564-28.21633-5.73796-41.0965-11.32279l-4.74327,9.87425c14.13332,6.17235,29.30232,10.40957,45.17122,12.38869,1.61419,8.18379,7.88861,15.05531,16.55005,17.00255,11.70527,2.63155,23.32762-4.72419,25.95919-16.42952.05891-.26201.10687-.5238.15585-.78561,15.4425-2.08715,30.20304-6.31854,43.97338-12.38418l-4.77446-9.85924c-12.53765,5.48334-25.95196,9.33256-39.97247,11.29404-2.35403-6.9276-8.15069-12.50185-15.81177-14.22419Z"/><path class="uuid-9267784c-5951-47e0-adad-2ace25356627" d="m182.17312,227.05099c-7.68327.029-15.00233-1.52199-21.65616-4.34006l-3.61584,7.57107c7.7609,3.34247,16.31443,5.19088,25.30365,5.15702,8.99241-.0339,17.53464-1.94824,25.27226-5.35144l-3.67396-7.54308c-6.63436,2.87013-13.94393,4.47754-21.62995,4.50648Z"/><path class="uuid-c52648e2-9379-41ee-a4d3-33b1a036a214" d="m330.22623,210.99428c-3.52817,13.45928-8.93819,26.58451-16.27477,38.98296-.84438-.30375-1.71346-.5647-2.61163-.76662-11.70533-2.63156-23.32767,4.72412-25.95923,16.42945-1.34451,5.98043-.07731,11.93607,3.04037,16.68514-10.27513,9.94213-21.68718,18.20815-33.85582,24.74592l4.8074,9.84318c13.39056-7.14896,25.93628-16.24112,37.18902-27.2284,1.6239.84203,3.38008,1.49328,5.24854,1.91334,11.70527,2.63155,23.32761-4.72413,25.95917-16.42946,1.57179-6.99139-.42136-13.95146-4.77411-18.98558,8.13119-13.59966,14.08935-28.02575,17.92703-42.8242l-10.69597-2.36573Z"/><path class="uuid-c52648e2-9379-41ee-a4d3-33b1a036a214" d="m231.66319,211.42911c5.58742-7.04594,9.42478-14.91416,11.59685-23.08332l-8.18623-1.83903c-1.89967,6.97448-5.20727,13.68817-9.98296,19.71047-4.77402,6.02017-10.55486,10.76952-16.91027,14.20814l3.65713,7.55118c7.45615-3.97602,14.24006-9.50398,19.82549-16.54743Z"/><path class="uuid-2dcf8181-9646-41d7-864f-34b84dc93793" d="m232.92058,15.89521c-15.45549-5.06766-31.24802-7.71738-46.91606-8.10001l.12759,10.95373c14.26897.38602,28.64537,2.78299,42.72806,7.32982-1.38592,10.97637,5.77454,21.41406,16.78928,23.89037,7.66899,1.72412,15.30182-.83945,20.3944-6.10393,11.62943,7.61812,21.95734,16.63366,30.84907,26.72395l8.49264-6.91904c-9.75148-11.12486-21.12431-21.04194-33.96797-29.37089.06609-.25195.13344-.50338.19103-.75955,2.63156-11.70533-4.72419-23.32762-16.42946-25.95917-8.67519-1.95034-17.30075,1.58856-22.25858,8.31473Z"/><path class="uuid-2dcf8181-9646-41d7-864f-34b84dc93793" d="m184.36503,117.018c7.22196.31052,14.50073,2.05182,21.43001,5.37774,6.92669,3.32465,12.83668,7.91231,17.59545,13.35013l6.55568-5.23627c-5.52626-6.39247-12.41737-11.78619-20.52148-15.67595-8.10697-3.89121-16.62896-5.89387-25.07616-6.2059l.01651,8.39025Z"/><path class="uuid-0da877df-b4f5-4cf9-9662-0d359491671f" d="m174.73167,7.97434c-14.93284.64546-29.94118,3.34951-44.62062,8.24474-2.99173-4.00315-7.36738-7.00289-12.62548-8.185-11.70533-2.63156-23.32768,4.72418-25.95923,16.42945-.79612,3.54119-.67284,7.073.20304,10.35236-13.47023,8.82926-25.29435,19.39932-35.30817,31.26589l8.62123,6.75834c9.14136-10.77513,19.88229-20.40166,32.09008-28.48571,2.84232,2.93472,6.53962,5.10531,10.82333,6.06837,11.70527,2.63155,23.32762-4.72419,25.95919-16.42952.57848-2.5731.67351-5.14204.34665-7.61252,13.34758-4.37995,26.97913-6.82995,40.54818-7.45226l-.0782-10.95414Z"/><path class="uuid-0da877df-b4f5-4cf9-9662-0d359491671f" d="m133.85644,130.66702l6.57402,5.21333c4.74141-5.45634,10.63758-10.0659,17.55567-13.415,6.91555-3.34785,14.18578-5.11363,21.40403-5.44917l-.01282-8.39024c-8.44314.34137-16.9551,2.37261-25.04613,6.28954-8.09396,3.91827-14.96894,9.33762-20.47477,15.75154Z"/><path class="uuid-b5b6453a-77f6-4151-ad6d-0c7f9bb17955" d="m27.74644,115.48575c-10.19678-.31062-19.51163,6.62482-21.83255,16.94838-2.32092,10.32356,3.12935,20.57852,12.47792,24.66204-1.45084,15.72767-.59805,31.26345,2.3143,46.22404l10.67017-2.47954c-2.61261-13.61137-3.39593-27.72928-2.14619-42.02234,9.07534-.88945,16.96306-7.4716,19.07249-16.85447,2.10943-9.38287-2.20215-18.70758-10.02348-23.39575,4.98545-13.44583,11.73154-25.8643,19.91284-37.04332l-8.58311-6.80658c-9.0293,12.26989-16.44485,25.93954-21.8624,40.76755Z"/><path class="uuid-b5b6453a-77f6-4151-ad6d-0c7f9bb17955" d="m119.65857,183.92953l8.17247-1.89918c-1.31825-7.10737-1.25499-14.5913.4309-22.09022,1.68527-7.49618,4.82948-14.28502,9.06051-20.14281l-6.57397-5.21326c-4.98911,6.81999-8.69861,14.74586-10.67033,23.51621-1.97244,8.77351-2.01138,17.52752-.41958,25.82926Z"/><line class="uuid-5c5413fe-c794-465a-af53-c433a071655d" x1="239.37587" y1="126.03019" x2="295.49335" y2="81.07492"/><line class="uuid-5c5413fe-c794-465a-af53-c433a071655d" x1="124.47905" y1="126.4215" x2="67.9775" y2="81.61461"/><line class="uuid-5c5413fe-c794-465a-af53-c433a071655d" x1="110.48185" y1="188.62847" x2="40.25959" y2="204.94682"/><line class="uuid-5c5413fe-c794-465a-af53-c433a071655d" x1="150.39645" y1="238.37828" x2="119.46368" y2="303.38852"/><line class="uuid-5c5413fe-c794-465a-af53-c433a071655d" x1="214.1935" y1="238.16762" x2="245.66812" y2="302.78835"/><line class="uuid-5c5413fe-c794-465a-af53-c433a071655d" x1="253.78932" y1="188.19451" x2="323.88767" y2="203.92022"/><line class="uuid-5c5413fe-c794-465a-af53-c433a071655d" x1="181.82814" y1="98.56365" x2="181.68623" y2="26.52902"/><path class="uuid-5d12af30-db6c-4d2c-a786-2066affc3c28" d="m343.81524,127.60173c-3.88795-1.90409-5.66101.00285-5.73499.08482l.549.49702c.06-.065,1.50602-1.55996,4.85998.08313,3.41298,1.67111,5.54682,7.18215,3.15167,12.41707-2.41212,5.26996-5.8102,8.20786-9.56918,8.27277-4.422.08686-8.37895-3.0112-10.6038-8.26326-1.56991-3.70902-1.21378-8.28006.84726-10.86997,1.35807-1.707,3.28308-2.39695,5.56707-1.99486.11999.021.23797.04401.35199.06703-.039.11896-.07099.23797-.09699.35699-.199.92395.03694,1.732.68293,2.33699,1.19199,1.11502,2.327,1.13604,2.99198.78407.55103-.29198.83401-.85496.73704-1.46898-.06798-.42603-.50392-1.74202-3.27392-2.52108.76602-1.33,2.36005-2.68292,3.91805-3.21292l-.23894-.70099c-1.63106.55495-3.55907,2.07389-4.42514,3.73091-.16595-.03601-.33899-.06904-.51898-.10103-2.53099-.44605-4.75898.35889-6.27502,2.26284-2.25508,2.83393-2.64521,7.61193-.94829,11.61997,2.31682,5.47107,6.46377,8.71616,11.11978,8.71628.05896,0,.11896,0,.17798-.00097,4.06-.07192,7.69307-3.16283,10.22922-8.7058,2.57216-5.62091.22026-11.56896-3.49869-13.39004Zm-9.954.80676c.02399-.11304.05701-.22705.09699-.34302,1.94402.52404,2.76297,1.34504,2.85896,1.95405.04797.30103-.08101.55603-.35201.7-.41901.22301-1.23102.17996-2.13896-.67107-.45202-.42298-.60898-.97499-.46499-1.63997Z"/><path class="uuid-5d12af30-db6c-4d2c-a786-2066affc3c28" d="m315.11422,271.34806c-.57098.007-.92999-.00002-1.10998-.18899-.20202-.21204-.28001-.73804-.23196-1.56501.016-.271.04603-.526.08803-.763,1.33996.04599,2.51001-.15796,2.86099-1.02294.17305-.42401.08205-.87701-.24197-1.211-.41198-.425-1.09899-.55703-1.70995-.33006-.43604.16198-1.10506.603-1.47209,1.79897-.78998-.06105-1.58795-.17802-2.15197-.26208-.19-.02802-.36999-.05396-.53497-.07698-.88501-.12405-.72095-2.30202-.5619-4.40901.03901-.52502.08004-1.05902.10703-1.58502.06701.09998.13098.20002.19598.30103.22802.35798.46397.727.82999,1.06899.79496.74404,1.98998.43505,2.76099-.25292.87203-.78001,1.32806-2.13595.37911-3.41002-1.09097-1.46298-2.64698-2.25501-3.70094-1.88309-.56702.2-1.23006.79398-1.1651,2.48599v.00201c-.708-.43703-1.757-.81004-3.43198-1.0361-2.19396-.29705-4.38399.64888-5.86102,2.52885-.99405,1.26395-1.38111,2.63595-1.01211,3.58097.54995,1.40303,2.61794,1.74707,4.61793,2.07916,1.057.17501,2.15002.35601,2.934.68403.349.146.49199.54902.49698,1.10701-1.50598.066-2.99201.25994-3.8.48294-1.13801.31394-2.19003,1.2569-3.07611,2.34093-1.31693-.84604-3.31893-1.48708-5.65094-.07119-2.11307,1.28297-3.3171,3.44096-3.22219,5.77092.08698,2.12903,1.25289,4.00803,3.04187,4.90211,5.32598,2.6631,8.49609-2.39682,8.52808-2.44779l-.61797-.37807c-.11499.18701-2.86114,4.54094-7.58605,2.17785-1.55302-.77604-2.56494-2.41809-2.64192-4.28309-.08491-2.06397.99009-3.97794,2.87415-5.12291,1.92905-1.17097,3.597-.75693,4.83002.02411-.95804,1.29398-1.67707,2.66195-2.0331,3.33998-.22499.42797-.24703.81396-.06705,1.14795.45402.83705,2.085.99206,3.81101,1.1561.40997.03901.81799.07705,1.19995.12503.42303.05403.75702-.12297.92006-.48295.48404-1.07-.75595-3.64003-2.50286-5.18707-.09002-.07996-.18701-.16199-.29101-.245.93399-1.14194,1.82903-1.83492,2.67705-2.0689.94001-.25901,2.26899-.40693,3.55403-.45792-.2111,1.52197-1.0051,3.64799-1.56415,5.14596-.46005,1.23095-.82403,2.20396-.87708,2.73496-.04597.45599.23802.581.32597.60902.276.08802.69299.21901,3.5621-3.36594,1.36705-1.70895,2.84812-3.73491,3.23412-4.42491.14204-.255.12501-.52697-.04698-.74597-.429-.54701-2.08598-.72405-3.86497-.69712-.01499-.84399-.27798-1.47999-.93294-1.75399-.86199-.36104-1.997-.54906-3.09501-.7311-1.80102-.29906-3.66301-.60806-4.06197-1.62809-.26799-.68604.09605-1.83899.90608-2.86997.493-.62798,2.32605-2.64594,5.19506-2.25787,1.94.26201,2.92399.69508,3.53397,1.20706-.01601.755-.07603,1.55102-.13403,2.32898-.19306,2.55303-.37415,4.96404,1.18383,5.18106.16302.02301.341.04902.52899.07704.65405.09596,1.38104.20401,2.09301.26501-.03797.23401-.06703.48901-.08303.76599-.06204,1.078.06996,1.72803.43098,2.10603.406.42604.97899.42001,1.64098.41508,1.10602-.01102,2.47998-.02399,4.00197,1.82005,1.66694,2.02208,1.6069,3.82603,1.26385,4.98306-.48606,1.64098-1.88905,3.04292-3.57309,3.57187-2.78402.87493-5.35996-.90809-6.4669-3.12217-.78701-1.57302-.43691-3.94899.36811-5.09698.23902-.341.63301-.73393,1.14803-.67392.53601.063,1.63298.66099,2.94686,3.96003l.67304-.26799c-1.10796-2.78201-2.29793-4.26703-3.5359-4.41104-.677-.08003-1.32697.26693-1.82504.97688-.94199,1.34299-1.33708,4.009-.42312,5.83703,1.01997,2.04104,3.16592,3.75106,5.6539,3.75112.54602.00001,1.10797-.08194,1.67902-.26192,1.907-.59895,3.49603-2.19193,4.05009-4.05691.55602-1.87401.05808-3.88104-1.40086-5.65006-1.74098-2.11101-3.44294-2.09408-4.56696-2.0841Zm-.09285-4.40198c.39795-.148.76495-.02299.93798.15499.125.12903.156.27503.09099.435-.18702.46099-1.02302.58701-1.99904.56794.21699-.59796.54904-1.00096.97006-1.15793Zm-4.15982-8.7061c.73798-.25999,2.00298.45702,2.87899,1.63307.72092.96797.2989,1.91798-.28107,2.437-.52504.46898-1.30605.71097-1.78303.26393-.29998-.28004-.50096-.59504-.715-.92903-.21398-.336-.43797-.68702-.77195-1.02303,0-.20496-.00298-.40796-.00999-.60699-.02196-.565.03806-1.547.68205-1.77495Zm-7.81249,19.13274c-.01898.04205-.03601.07904-.16998.06201-.38898-.04798-.80499-.08797-1.22198-.12698-1.25403-.12009-2.97198-.28309-3.24198-.78109-.021-.04004-.08801-.16205.071-.46503.67801-1.28996,1.34106-2.37497,1.9861-3.25093.08795.07099.17199.14301.25396.21497,1.769,1.56706,2.57589,3.78705,2.32289,4.34704Zm4.82722-7.67883c1.60797-.01998,3.01501.12105,3.30498.38711-.79105,1.39598-4.34713,5.97084-5.6632,7.1508.14601-.52398.43808-1.30498.74206-2.11998.67107-1.79497,1.43412-3.83895,1.61616-5.41793Z"/><path class="uuid-5d12af30-db6c-4d2c-a786-2066affc3c28" d="m258.77846,16.27337c-4.15789-2.66111-9.48088-3.11321-13.89194-1.18235-2.12905.93293-3.85309,2.3359-5.09513,4.10986-.753.53099-1.47604,1.17501-2.11705,1.95399-2.05005,2.49592-2.78811,5.83294-2.1922,9.9209.73687,5.05605,3.71676,8.8801,8.39274,10.76724,2.01194.81304,4.20993,1.20708,6.38797,1.20713,3.51794.00009,6.98202-1.02882,9.51503-2.98975,3.58808-2.77793,5.68219-7.52183,5.4643-12.37785-.21283-4.758-2.56875-8.91608-6.4637-11.40916Zm.55142,23.209c-3.90608,3.02291-10.14908,3.71477-15.18205,1.68267-4.42391-1.78612-7.24486-5.40619-7.94274-10.19521-.56387-3.87202.11919-7.01703,2.03124-9.34596.15601-.19.318-.37102.48402-.54497-.436.95897-.75603,1.99394-.9521,3.09592-.74309,4.184-.11915,7.72705,1.85478,10.53209,2.75289,3.91206,7.15985,5.03418,8.92583,5.33421,3.26598.55605,6.95503-.48286,9.6291-2.71174,1.87705-1.56496,4.1281-4.45693,4.18822-9.3459.03908-3.177-1.04386-5.84506-3.22081-7.93007-3.12889-2.99611-7.39688-3.74024-8.60092-3.67624-.97901.05399-.96103,1.18497-.92306,3.663.00896.59094.01895,1.26697.01893,2.03198-.00002.87097-.01902,1.72101-.03803,2.54401-.02805,1.27197-.0531,2.38501-.0071,3.29297-2.18103.02796-5.37702.20085-5.87.22788l.03996.72998c1.78504-.09798,4.23902-.20589,5.89002-.22782.08696.73895.25497,1.28699.55996,1.60499.79698.83004,1.46898.64701,1.72002.53001.51697-.23894.84402-.87693.77702-1.51695-.067-.64899-.50498-1.128-1.16995-1.28104-.19702-.04603-.63702-.06599-1.21405-.07004-.04697-.922-.02094-2.08099.00612-3.27399.01803-.82599.03801-1.68103.03803-2.56.00002-.76898-.01095-1.44904-.01991-2.04303-.02297-1.495-.04497-2.90601.23207-2.92095,1.07501-.064,5.13695.68012,8.05491,3.4742,2.02394,1.93902,3.03291,4.42604,2.99579,7.39204-.05712,4.61102-2.16614,7.32593-3.92618,8.79293-2.47606,2.0639-6.02309,3.06583-9.03705,2.55275-1.67602-.28501-5.85598-1.34615-8.45092-5.03421-1.85791-2.63902-2.44083-5.99805-1.73175-9.98405.30204-1.70501.92208-3.24198,1.82415-4.56496,3.05706-2.09294,6.65503-2.30483,6.69903-2.30782l-.03599-.72998c-.15796.00799-2.64997.15191-5.30002,1.40783.98-.96396,2.15605-1.75495,3.50409-2.34592,4.18901-1.83486,9.249-1.40272,13.20395,1.12838,3.69196,2.36307,5.92483,6.30911,6.12772,10.8251.20692,4.62403-1.77922,9.13197-5.1823,11.76788Zm-8.94071-10.84721c.48901.003.84198.019.98901.053.48095.11201.58696.45204.60698.64503.03399.32703-.123.669-.35805.77801-.31696.14495-.69-.17104-.88396-.37405-.17803-.185-.28801-.57398-.35398-1.102Z"/><path class="uuid-5d12af30-db6c-4d2c-a786-2066affc3c28" d="m33.32952,124.41679c-1.68603-.31804-3.56604.07791-5.15707,1.08489-.706.447-1.34103,1.00198-1.88804,1.64497-1.63989-2.65208-4.18992-3.49016-6.30589-3.28519-3.40205.33195-6.94607,3.38185-6.8132,8.38185.08891,3.34302,2.01679,6.96904,5.72874,10.77614,2.74187,2.81306,5.49787,4.68611,5.52588,4.70515l.40498-.60003c-.10699-.073-10.73383-7.34426-10.9356-14.90024-.1219-4.56201,3.08215-7.34196,6.15919-7.64188,2.02497-.19795,4.32097.61913,5.76487,3.16817-.55098.77294-.986,1.64493-1.28302,2.58493-.37405,1.18603-.15405,2.24603.58794,2.83601.55095.438,1.29595.51004,1.85394.18004.30402-.17895.98507-.74894.74609-2.16697-.22098-1.30799-.58197-2.41103-1.04191-3.33303,1.53905-1.92391,3.92208-3.21188,6.51905-2.7228,1.15399.21701,4.884,1.41608,4.4638,7.70812-.68623,10.24693-12.5664,16.71764-12.68542,16.78167l.34099.63899c.12604-.06695,3.12004-1.68291,6.25012-4.62881,5.26013-4.95391,6.61023-9.66384,6.81636-12.74385.24008-3.58801-.96087-7.69705-5.05179-8.46814Zm-6.32518,6.88784c.11497.68701-.03006,1.20502-.40006,1.42302-.30201.17895-.71802.12895-1.03497-.12307-.49901-.39601-.629-1.16298-.34797-2.05097.22304-.70599.55405-1.39702.97405-2.03898.35002.78999.62697,1.71498.80895,2.79Z"/><path class="uuid-5d12af30-db6c-4d2c-a786-2066affc3c28" d="m183.08501,321.01601c.07568.25055.19377.59681.01371.82715-.14167.18115-.33991.17785-.54755.17198-.31-.00874-.65594-.03304-.86547-.26168-.21838-.23835-.20036-.615-.08213-.91583.12019-.30591.37588-.84026.54245-1.13378.08222-.14483.23676-.1477.36029.06898.15795.27704.48624.93702.5787,1.24318Zm8.71325,12.53287c.54842-3.29143-1.14296-6.70083-2.74653-9.46015-.62387-1.0735-1.29896-2.11624-1.99577-3.14354-.56224-.82881-1.0923-1.68087-1.70404-2.47502-.52855-.68617-1.18636-1.46481-2.15421-1.06451-.39606.16399-.70704.49901-.92306.87601-.21599-.37702-.52696-.71205-.92295-.87606-1.42387-.58976-2.34787,1.24878-2.94341,2.20311-.76242,1.22178-1.63318,2.37722-2.38833,3.60706-1.67622,2.72957-3.39938,5.92728-3.36455,9.22099.00396.37518.07597.74005.09488,1.11164.04496.883-.03006,1.41101-.22904,1.61401-.18903.19299-.612.17998-1.19599.16397-.383-.011-.81604-.02401-1.32599.01693-.02301.00299-.04504.01202-.06702.01904-.02203.00696-.04498.01099-.07202.02496-.01599.008-.02496.02203-.03796.03302-.02002.01599-.04102.02997-.05805.05096-.01398.01703-.02197.03705-.03198.05701-.01094.01896-.02291.03787-.02892.05876-.02686.09343-.01195.18687.02989.27327l2.86181,4.95655c.22167.38398.37748.969.86423,1.06026.47674.08937.91145-.40482,1.26357-.66031.47938-.34789.96334-.69004,1.4598-1.01315.83406-.5427,1.70596-1.01979,2.63053-1.39013,2.40804-.79096,2.70715-4.63195,2.97121-8.02196.10001-1.27398.19305-2.47796.38711-3.45897.05201-.29901.08498-.57202.10299-.82202.01898.25305.05297.52905.10496.83106.19199.97199.28596,2.17597.38492,3.451.10086,1.29956.19726,2.60511.43301,3.88862.19919,1.08411.48957,2.23993,1.16965,3.13228.43213.56701,1.081.87305,1.71973,1.14825.79281.34158,1.54903.76981,2.27192,1.24023.49645.32313.98039.66531,1.45975,1.01322.35211.2555.78679.74971,1.26353.66037.48676-.09124.64259-.67625.86428-1.06022l2.86206-4.95641c.01599-.03302.02197-.05798.02899-.08398.00501-.01904.013-.03601.01502-.05505.00299-.02496-.00305-.03998-.00403-.05695-.00201-.026-.00201-.052-.01001-.07703-.00598-.021-.018-.03998-.02899-.05902-.01001-.01996-.018-.03998-.03198-.05701-.01703-.021-.03802-.03497-.05804-.05097-.013-.01099-.02197-.02502-.03796-.03302-.02704-.01398-.04999-.01801-.07202-.02497-.02197-.00702-.04401-.01605-.06702-.01904-.50995-.04097-.94299-.02798-1.32599-.017-.58398.01598-1.00696.02897-1.19598-.16403-.19897-.20301-.27397-.73102-.22896-1.61402l.00696.00195Zm-.69897-.05794c-.06003,1.15997.063,1.784.425,2.15498.40099.41004,1.34069.3013,2.07366.28033.1983-.00555.26782.14954.16289.35297-.26545.51452-.70859,1.4116-.9818,1.92203-.30354.56701-.61123,1.13213-.93528,1.68772-.17237.29571-.56113,1.20433-.95688,1.19846-.30237-.00446-.83751-.48983-1.09849-.66006-.41546-.27101-.82848-.54574-1.2454-.81448-.63609-.41002-1.30445-.8085-1.98386-1.15997-.64783-.33514-1.29648-.56402-1.72898-1.18698-.64054-.92256-.86695-2.11513-1.03465-3.20376-.16965-1.10108-.25342-2.21357-.34013-3.32349-.10098-1.29602-.19598-2.52002-.39493-3.52302-.24099-1.40497-.07495-2.33301.45709-2.54638.96015-.37992,1.30058.69235,1.45993,1.38743.12798.55402.28696,1.24299.54799,1.94502q.90786,4.066,1.15688,4.13901c.12097.03504.25201.00306.34198-.08599.11499-.11395.23304-.23095-.56694-3.06697-.07799-.34601-.16496-.73102-.26096-1.16102-.00299-.01599-.00799-.03101-.01398-.04602-.24998-.667-.40396-1.339-.52894-1.88002-.15703-.68299-.25797-1.12202-.48001-1.34797-.11743-.11951-.19958-.23865-.34679-.33216-.16034-.10181-.33721-.17286-.51953-.22413-.45794-.12873-1.00006-.07876-1.38263.22067-.29938.23437-.47273.5866-.56405.94902-.04395.1745-.07026.35327-.08497.53253-.03606-.43909-.14195-.90021-.42087-1.25257-.27044-.34156-.65587-.48781-1.08672-.50296-.48596-.01716-1.12537.16385-1.39241.60946-.22199.22595-.32204.66497-.48001,1.34899-.12404.53997-.27908,1.21294-.5291,1.87895-.00598.01501-.00995.03003-.01398.04602-.09602.42999-.18203.815-.26102,1.161-.80006,2.83598-.6811,2.95299-.56709,3.06694.09002.08905.22101.12104.34198.08601q.24903-.07299,1.15812-4.13895c.261-.70202.41904-1.39.54711-1.94524.15895-.69311.46226-1.78722,1.46097-1.38668.531.21296.69797,1.14101.45794,2.537-.20101,1.01196-.29608,2.23595-.39706,3.531-.24709,3.17394-.52721,6.77098-2.51727,7.42493-.91267.36521-1.75484.92171-2.57779,1.45196-.41694.26873-.82997.54344-1.24544.81442-.26099.17022-.79616.65556-1.09853.66001-.39575.00585-.78446-.90279-.95682-1.19851-.32402-.55561-.63169-1.12074-.9352-1.68777-.27318-.51044-.71627-1.40755-.9817-1.92208-.10491-.20343-.03539-.35852.16291-.35296.73297.02101,1.67267.1298,2.07368-.28022.36201-.37096.48507-.99498.4251-2.15496-.00104-.013-.00305-.02704-.005-.04004-.74092-4.36403,3.27821-10.17192,5.4374-13.29289.34395-.497.67971-.99949,1.02042-1.49869.2508-.36749.69826-.81907,1.1913-.61435.25653.10651.5075.35951.60094.62257.12627.35547-.10872.59717-.27187.89611-.20503.37579-.42751.7484-.55496,1.15996-.13404.43286-.13088.90301.08652,1.30872.18713.34913.5313.55665.91063.63808.46722.10023.97784.16726,1.42688-.03359.28693-.12835.50184-.37291.59474-.67314.18391-.59454-.07718-1.26282-.33016-1.79566-.3289-.69245-1.29439-1.62461-.08637-2.12293.50428-.20879.997.27328,1.2451.65701.31609.48896.63553.97585.96774,1.45614,2.15892,3.12103,6.17678,8.92911,5.4357,13.2931l-.01202.03809Z"/><path class="uuid-5d12af30-db6c-4d2c-a786-2066affc3c28" d="m67.7222,280.84247c-1.19999-.76749-3.10588-.73073-4.45378-.62633-1.10022.08518-2.12288.49091-3.2076.66539-.47528.07647-.27358.79931.19938.72321,1.12879-.18155,2.18031-.60096,3.3304-.65702.93518-.04557,1.91473-.01637,2.82812.20283.26514.06361.90588.17959,1.01567.4747.1242.33393-.56318.49785-.87367.593-1.52034.4659-3.23487.40269-4.80622.35834-2.01556-.05687-2.92142-.2292-4.93093-.38727-1.72009-.1353-3.44744-.30154-5.16778-.0785-.54584.07079-1.0915.17313-1.61213.35579-.5362.1881-1.40474.73056-1.75806.04842-.75039-1.44875,4.93021-1.46832,5.64646-1.46696.79523.00155,2.20037.34094,2.92645-.02422.97133-.4885.48345-2.02794.47706-2.84038-.00538-.68428-.02106-1.48601.12547-2.15316.02355-.10721.08965-.21136.19198-.25108.18884-.07328.80629.25786,1.04415.29072.44463.06143.89819.05162,1.34591.0589,1.83234.02977,3.83093.01505,5.37961-1.10814,1.05281-.76365,1.81206-2.05623,1.56265-3.38753-.12553-.67023-.50577-1.28163-1.01552-1.7283-.24737-.21676-.54589-.3948-.85749-.50254-.1791-.06193-.59813-.10969-.52809-.39256.04854-.19604.62956-.55502.78657-.70695.56199-.54381,1.03692-1.15813,1.34605-1.88089.46896-1.09642.51257-2.19164-.11076-3.23407-.53702-.89808-1.45846-1.44998-2.47267-1.63977-.50147-.09384-1.0098-.081-1.5123-.00297-.27873.04328-1.08611.38238-1.30786.16228-.18722-.18582-.00258-.93691-.01623-1.20165-.02627-.50943-.14577-1.00602-.35814-1.47013-.58633-1.28151-1.94086-2.16136-3.26959-2.51064-2.68419-.70557-6.33762,1.21005-6.56999,4.18813-.02534.32452-.00557.6485.04978.96936.07994.46344.42344.99238.45895,1.43843.03856.48444.01238.41162-.44044.56218-.35517.11816-.78235.09721-1.15302.16751-1.3559.25705-2.29873,1.12061-2.6416,2.48071-.34104,1.35277.16589,2.7259,1.12955,3.69906.5385.54384,1.18711.75595,1.79617,1.16606.58007.39052.29149.56593-.09585,1.05481-.13446.1698-.28669.33245-.4051.51446-.81436,1.25212-.64644,2.9265.76071,3.6523,1.12535.58047,2.48296.28351,3.09603-.84416.2306-.42413-.41673-.80317-.64757-.37856-.53024.97521-1.81313.96895-2.52912.21448-.9282-.97811-.21369-2.03077.44239-2.86229.41902-.531,1.0806-1.1821.36564-1.75896-.6303-.5085-1.47899-.5709-2.12332-1.16753-.79417-.73537-1.32179-1.80899-1.11174-2.91128.39416-2.06853,1.9912-1.99025,3.61316-2.35825,1.13203-.25687.85049-.91514.51549-1.7968-.78205-2.05831.18863-3.85559,2.05548-4.89106,1.65298-.91695,3.78816-.65927,5.19566.61378,1.24112,1.12271,1.19159,2.43783.98763,3.93563-.04041.297.15758.51087.46129.46132,1.75532-.28633,3.90072-1.07137,5.07896.89209.63712,1.06166.34028,2.18372-.24874,3.18994-.6036,1.03105-1.4448,1.50924-2.27636,2.28028-.16034.14862-.14558.49487.07585.58893.65832.27956,1.35656.31144,1.93028.80968.8311.72176,1.04591,1.79837.56615,2.77614-.99871,2.03544-3.52856,2.18467-5.50634,2.17339-.67465-.0038-1.64494.14482-2.26311-.13416-.28235-.12742-.57282-.30763-.58446-.6382-.01723-.48917.1722-1.07614.22864-1.57059.12759-1.11786.1893-2.25379.02014-3.37086-.11735-.77533-.33534-1.88307-1.26234-2.04813-1.04748-.18643-1.53005.74062-1.79649,1.56803-.35044,1.08831-.12972,2.26343.3134,3.29027.22766.52758.51678,1.02824.84608,1.49867.38421.54886.84132.79433.74437,1.51803-.14059,1.04941-.19847,2.13167-.14797,3.18926.03312.6944.33328,1.46327-.55613,1.66197-.45978.10277-1.12378-.04049-1.59314-.04685-1.88269-.02544-4.18103-.1411-5.94283.6489-1.03315.46329-1.57939,1.84902-.32617,2.51665.84685.45119,1.73823-.21059,2.54951-.42364,1.44178-.37869,2.98188-.33129,4.45569-.23146,3.58434.24264,6.14241.78812,9.73721.44794.87952-.08323,5.00387-1.00891,2.80054-2.41808Zm-11.92459-12.10626c.06854-.1066.15661-.19547.27233-.25006.23185-.10939.52207-.04011.71533.12833s.29909.41956.33975.67268c.12338.76801.1264,1.54917.07342,2.32361-.02071.30276-.02577,2.03066-.36168,2.07585-.41545.05589-1.0323-1.59496-1.14768-1.91588-.30863-.8584-.3001-1.65709-.08277-2.54409.0413-.16858.09833-.34582.19131-.49043Z"/><path class="uuid-5d12af30-db6c-4d2c-a786-2066affc3c28" d="m127.09004,39.50862c-.54689-.63149-1.04543-1.32128-1.4011-2.08007-.10301-.21976-.19557-.44582-.26511-.67858-.01998-.06689-.02768-.15311-.05772-.2156-.14497-.30153-.6222-.2667-.70697.06227-.0818.31742.20237.75346.32633,1.03056.38547.86168.94308,1.64317,1.55859,2.35449.39757.45851.80944.90476,1.2367,1.33577.157.15838,1.00814.78451.79996,1.02128-.15773.17938-1.04641-.1351-1.26299-.18945-.59131-.1484-1.17229-.33706-1.7428-.55166-.88765-.33398-1.75124-.77503-2.48919-1.37629-.4716-.38425-.83699-1.13503-1.53534-.86327-.20226.07871-.3979.18088-.59748.26662-.68506.29433-1.38247.56029-2.08787.80169-2.10761.72127-4.30548,1.23531-6.53166,1.38698-2.51199.17114-5.11724-.1436-7.35578-1.35993-1.44816-.78686-2.67035-1.92822-3.6005-3.2854-4.68281-6.83215-2.37861-14.29205,1.98148-18.65394,5.33015-5.33385,11.17608-4.51773,14.56207-2.20063.44794.30687.86654.65974,1.22735,1.06635.29056.32744.54265.68973.73822,1.08177.16202.32479.28466.66907.36197,1.02377.01145.05255.02192.10531.03139.15825.00863.04825.04037.13498.0116.17724-.03194.04693-.11046.03192-.1592.03368-.06545.00236-.13086.00609-.19616.01118-.12973.01011-.25904.02556-.38748.04634-.25178.04074-.5004.10185-.74187.18408-.45082.15351-.88269.38135-1.24115.69738-.18258.16097-.34547.34536-.47482.55191-.39101.62499-.37503,1.31597.04298,1.896.46593.64399,1.08897.918,1.75297.77202.96699-.21293,1.82901-1.32094,2.09504-2.69489.02179-.1114.03961-.22358.05342-.33625.00686-.05593.01272-.11198.01761-.16812.00314-.03605-.00903-.12462.03386-.13989.04656-.01657.13584.02265.18369.03615.04936.01392.09844.02886.14719.04478.10458.03417.20766.07292.30888.11603.22984.09787.44992.21826.65711.35777.24334.16385.4686.3539.67397.56325.24339.24811.45873.52297.64813.81418.22803.35061.41873.72474.57957,1.11056.19596.47005.34802.95778.46829,1.45238.02434.10011.04738.20054.06918.30124.69993,3.23299.08786,6.23401-1.67922,8.23494-1.31504,1.48898-3.15704,2.24693-5.05504,2.07586-.77197-.06899-1.32097-.37003-1.68-.92104-.44017-.67664-.51891-1.54048-.49763-2.32755.02083-.77033.09341-1.70498.38094-2.42597.05542-.13896.11221-.28277.10738-.43229s-.08852-.30741-.23185-.35027c-.13626-.04074-.28582.03452-.37453.14571-.36311.45512-.46326,1.30508-.66492,1.84944-.24178.65265-.50968,1.29698-.81835,1.92101-.34635.7002-.93405,2.05159-1.81399,2.22888-.08905.01794-.36102.07494-.73205-.37905-.73197-.89504-.74994-2.35305-.76486-3.64003-.01498-1.229-.02595-2.19898-.65594-2.579-.50103-.30299-1.12701-.04703-1.55402.17098-.87358.44715-1.55493,1.48858-2.07145,2.65012-.07829.17606-.17772.15193-.15312-.04501.09835-.78756.21435-1.63102.34957-2.49816,2.27803-.69996,5.25104-2.51989,6.56317-7.21785,1.02408-3.67301-.41591-4.43501-.88184-4.58205-1.39702-.439-3.55307,1.12491-4.73614,4.50391-.37456,1.06917-.6661,2.16679-.91809,3.2707-.13328.5839-.25465,1.17049-.36691,1.75879-.05623.29468-.11016.58981-.16202.88529-.02579.14691-.05106.29392-.07585.441-.01778.10552-.01239.27647-.07803.36516-.05393.07288-.15374.07561-.23589.09342-.11511.02495-.23071.04762-.34672.06794-.23201.04064-.46567.07192-.70024.09335-.29283.02675-.79113-.07345-1.0355.07171-.15168.0901-.24217.28437-.18895.45257.17444.55132,2.03524.07846,2.40297-.0029-.22642,1.48704-.41038,2.98057-.56058,4.47718-.05167.51484-.09928,1.0301-.14202,1.54577-.02552.30789-.20482,1.01101.03244,1.22784.12823.11719.33746.13364.48245.03791.23204-.15322.19741-.5904.2489-.84476.06128-.30272.1297-.60402.20382-.90385.17413-.70439.37941-1.40229.62937-2.08366.39939-1.08867.96505-2.55757,2.06863-3.12146.40503-.20696.71601-.27897.85303-.19596.28595.172.29697,1.12702.3069,1.969.01602,1.336.03594,2.99902.92794,4.08901.53599.65504,1.07798.70303,1.43797.62809.52672-.10965.94304-.51467,1.27023-.91806.24205-.29843.44967-.62442.64049-.9574.09336-.1629.40005-1.04583.65883-.88911.12045.07294.11716.67721.15648.82703.09386.35762.23268.705.43501,1.01562.47996.73896,1.22696,1.15799,2.21994,1.247,2.13.19109,4.19203-.65389,5.66107-2.31681,1.92107-2.175,2.59315-5.40594,1.84422-8.86598-.11175-.5153-.25366-1.02466-.43585-1.51965-.15323-.41633-.33513-.82266-.55256-1.20955-.18463-.32854-.39501-.64301-.63401-.93457-.20573-.25096-.43266-.48476-.68022-.6947-.21566-.18289-.44685-.34752-.69117-.48995-.21327-.12434-.43643-.23172-.66686-.32032-.19775-.07604-.40083-.13827-.6073-.18581-.05704-.01313-.13759-.01353-.18149-.05187-.04636-.04048-.04347-.10287-.05103-.15895-.00758-.05618-.01615-.11223-.0257-.16812-.01913-.11196-.04219-.22325-.06905-.33361-.05416-.22252-.1238-.44122-.20755-.65436-.173-.44031-.40604-.856-.68398-1.23852-.29671-.40835-.64411-.77885-1.02545-1.10915-.21906-.18974-.44942-.36634-.68854-.53004-4.75889-3.25909-10.83496-2.36129-15.47906,2.28465-4.5711,4.57386-6.98328,12.39979-2.06647,19.57392,2.74087,3.99805,7.31382,5.66016,13.22491,4.80434,1.65658-.23983,3.28761-.65026,4.87328-1.18395.59284-.19953,1.17981-.41676,1.75921-.65251.36781-.14965.80866-.47477,1.22739-.36258.30915.08283.5788.45589.82728.65337.78459.62359,1.69172,1.08606,2.62682,1.43792,2.03495.76507,3.39994.9031,4.1182.90312.21694,0,.47638.01272.68796-.01899.11063-.01658.22107-.07539.27076-.17562.0603-.12163.01569-.27427-.07248-.3775-.3411-.39934-.90595-.72682-1.29982-1.08998-.68342-.63012-1.32697-1.30358-1.93557-2.00601Zm-18.55058-17.41744c.97309-2.77897,2.6201-4.0899,3.5781-4.08988.09399,0,.18103.01197.26105.03699.60797.19099,1.07797,1.27401.40286,3.69898-.27466.98309-.65379,1.94067-1.16919,2.82326-.41913.71773-.92882,1.38334-1.52782,1.96044-.5064.48788-1.07472.91051-1.6884,1.25389-.1906.10665-.38543.2057-.58384.297-.20425.09399-.41319.20133-.62431.27747-.04011.01449-.09045.00959-.11787-.02307-.02721-.0324-.02408-.08052-.01223-.12113.07914-.27108.10752-.56384.15889-.84222.05537-.30006.11307-.5997.1734-.8988.11945-.59213.24909-1.18227.39246-1.76908.21452-.87805.45808-1.75049.7569-2.60386Zm11.73403-.90968c-.20999,1.08196-.85906,1.97697-1.54302,2.12698-.37604.083-.71704-.08205-1.01201-.49002-.24798-.34406-.25297-.71107-.01596-1.09003.22072-.35292.57942-.61076.94756-.79224.25116-.12381.52357-.21363.79947-.27193.14015-.02961.28184-.05163.42414-.06779.07179-.00815.14374-.01481.21579-.02022.07371-.00553.18904-.03782.24364.03063.06418.08047-.0084.23528-.01981.32483-.01065.08364-.02373.16701-.0398.24979Z"/><path class="uuid-810f902c-c5fa-4e0f-a608-347b7d08843b" d="m251.24539,151.24975v-8.61914h1.35547c.78613,0,1.36035.05078,1.72461.15234.51562.13672.92676.39062,1.23145.76172.30566.37109.45801.80859.45801,1.3125,0,.32812-.06934.62598-.20801.89355s-.36426.51855-.67676.75293c.52344.24609.90625.55371,1.14844.92285s.36328.80566.36328,1.30957c0,.48438-.125.92578-.375,1.32422-.25098.39844-.57324.69629-.96875.89355-.39453.19727-.94043.2959-1.63574.2959h-2.41699Zm1.64062-7.05469v1.81641h.3584c.40039,0,.69727-.08398.8916-.25195s.29102-.39648.29102-.68555c0-.26953-.0918-.4834-.27637-.6416s-.46484-.2373-.84082-.2373h-.42383Zm0,3.28125v2.20898h.41113c.68164,0,1.14062-.08594,1.37793-.25781s.35547-.42188.35547-.75c0-.37109-.13867-.66406-.41699-.87891s-.74023-.32227-1.38672-.32227h-.34082Z"/><path class="uuid-810f902c-c5fa-4e0f-a608-347b7d08843b" d="m260.61746,142.63061h1.66309l3.31543,8.61914h-1.70508l-.6748-1.77539h-3.5166l-.70117,1.77539h-1.70508l3.32422-8.61914Zm.8418,2.28516l-1.15625,2.95898h2.30566l-1.14941-2.95898Z"/><path class="uuid-810f902c-c5fa-4e0f-a608-347b7d08843b" d="m266.79324,142.63061h1.64062v7.05469h2.39062v1.56445h-4.03125v-8.61914Z"/><path class="uuid-810f902c-c5fa-4e0f-a608-347b7d08843b" d="m274.98269,142.63061h1.66309l3.31543,8.61914h-1.70508l-.6748-1.77539h-3.5166l-.70117,1.77539h-1.70508l3.32422-8.61914Zm.8418,2.28516l-1.15625,2.95898h2.30566l-1.14941-2.95898Z"/><path class="uuid-810f902c-c5fa-4e0f-a608-347b7d08843b" d="m281.16336,142.63061h1.57422l3.6875,5.67188v-5.67188h1.64062v8.61914h-1.57812l-3.68359-5.6543v5.6543h-1.64062v-8.61914Z"/><path class="uuid-810f902c-c5fa-4e0f-a608-347b7d08843b" d="m298.01199,144.14526l-1.14746,1.09375c-.78027-.8252-1.65918-1.2373-2.63477-1.2373-.82324,0-1.5166.28125-2.08105.84473-.56348.5625-.8457,1.25684-.8457,2.08203,0,.5752.125,1.08496.375,1.53125.24902.44531.60254.79492,1.05957,1.0498.45605.25391.96387.38086,1.52148.38086.47656,0,.91113-.08887,1.30566-.2666s.82715-.50195,1.2998-.9707l1.1123,1.16016c-.63672.62207-1.23828,1.05273-1.80469,1.29297s-1.21289.36035-1.93945.36035c-1.33984,0-2.43652-.4248-3.29004-1.27441s-1.28027-1.93848-1.28027-3.2666c0-.85938.19434-1.62305.58301-2.29102s.94531-1.20508,1.66992-1.61133,1.50488-.60938,2.34082-.60938c.71094,0,1.39551.15039,2.05371.4502.6582.30078,1.22559.72754,1.70215,1.28125Z"/><path class="uuid-810f902c-c5fa-4e0f-a608-347b7d08843b" d="m299.36453,142.63061h4.70508v1.60547h-3.07617v1.55859h3.07617v1.57617h-3.07617v2.26758h3.07617v1.61133h-4.70508v-8.61914Z"/><path class="uuid-810f902c-c5fa-4e0f-a608-347b7d08843b" d="m305.86551,142.63061h1.94336c1.25293,0,2.18359.15527,2.79297.46582.6084.31055,1.11035.81543,1.50391,1.51465.39453.69922.5918,1.51562.5918,2.44922,0,.66406-.11035,1.27441-.33105,1.83105s-.52441,1.01855-.91309,1.38574-.80859.62109-1.26172.76172c-.45215.14062-1.2373.21094-2.35352.21094h-1.97266v-8.61914Zm1.62891,1.58203v5.4375h.76172c.75,0,1.29395-.08594,1.63184-.25781s.61426-.46191.8291-.86816c.21484-.40723.32227-.90723.32227-1.50195,0-.91504-.25586-1.625-.76758-2.12891-.46094-.4541-1.20117-.68066-2.2207-.68066h-.55664Z"/><path class="uuid-810f902c-c5fa-4e0f-a608-347b7d08843b" d="m252.89187,153.63061h1.57422l3.6875,5.67188v-5.67188h1.64062v8.61914h-1.57812l-3.68359-5.6543v5.6543h-1.64062v-8.61914Z"/><path class="uuid-810f902c-c5fa-4e0f-a608-347b7d08843b" d="m261.79812,153.63061h1.64648v5.57324c0,.48047.04199.82031.12598,1.01953.08398.19824.22266.35742.41602.47656s.42676.17871.7002.17871c.28906,0,.53809-.06641.74707-.19922s.35352-.30176.43359-.50586c.08008-.20508.12012-.59668.12012-1.17383v-5.36914h1.64648v5.13867c0,.86719-.04883,1.46875-.14648,1.80469s-.28418.66016-.55957.97266-.59277.54395-.95215.69434-.77734.22559-1.25391.22559c-.625,0-1.16895-.14355-1.63184-.43066s-.79395-.64648-.99316-1.07812-.29883-1.16113-.29883-2.18848v-5.13867Z"/><path class="uuid-810f902c-c5fa-4e0f-a608-347b7d08843b" d="m268.72195,153.63061h4.76367v1.61719h-1.57031v7.00195h-1.66406v-7.00195h-1.5293v-1.61719Z"/><path class="uuid-810f902c-c5fa-4e0f-a608-347b7d08843b" d="m274.66726,153.63061h1.73828c.95215,0,1.62988.08496,2.0332.25488.4043.16992.72949.45215.97461.84668.24609.39453.36914.86133.36914,1.40039,0,.56641-.13574,1.04004-.40723,1.4209s-.68066.66895-1.22754.86426l2.04199,3.83203h-1.79395l-1.9375-3.65039h-.15039v3.65039h-1.64062v-8.61914Zm1.64062,3.36914h.51367c.52246,0,.88184-.06836,1.07812-.20605.19629-.13672.29492-.36426.29492-.68164,0-.18848-.04883-.35156-.14648-.49121-.09668-.13867-.22754-.23828-.39062-.2998-.16406-.06055-.46387-.09082-.89941-.09082h-.4502v1.76953Z"/><path class="uuid-810f902c-c5fa-4e0f-a608-347b7d08843b" d="m281.47879,153.63061h1.62891v8.61914h-1.62891v-8.61914Z"/><path class="uuid-810f902c-c5fa-4e0f-a608-347b7d08843b" d="m284.19851,153.63061h4.76367v1.61719h-1.57031v7.00195h-1.66406v-7.00195h-1.5293v-1.61719Z"/><path class="uuid-810f902c-c5fa-4e0f-a608-347b7d08843b" d="m290.02859,153.63061h1.62891v8.61914h-1.62891v-8.61914Z"/><path class="uuid-810f902c-c5fa-4e0f-a608-347b7d08843b" d="m297.68777,153.41381c1.21973,0,2.26758.44141,3.14551,1.32422s1.31641,1.95898,1.31641,3.22852c0,1.25781-.43262,2.32227-1.29883,3.19336s-1.91602,1.30664-3.15137,1.30664c-1.29395,0-2.36914-.44727-3.22461-1.3418-.85645-.89453-1.28418-1.95703-1.28418-3.1875,0-.82422.19922-1.58203.59766-2.27344.39941-.69141.94727-1.23926,1.64453-1.64355.69824-.4043,1.44922-.60645,2.25488-.60645Zm-.01758,1.60547c-.79785,0-1.46875.27734-2.01172.83203-.54395.55469-.81543,1.25977-.81543,2.11523,0,.95312.3418,1.70703,1.02637,2.26172.53223.43359,1.1416.65039,1.83008.65039.77832,0,1.44043-.28125,1.98828-.84375s.82129-1.25586.82129-2.08008c0-.82031-.27539-1.51465-.82715-2.08301s-1.22168-.85254-2.01172-.85254Z"/><path class="uuid-810f902c-c5fa-4e0f-a608-347b7d08843b" d="m303.75027,153.63061h1.57422l3.6875,5.67188v-5.67188h1.64062v8.61914h-1.57812l-3.68359-5.6543v5.6543h-1.64062v-8.61914Z"/><path class="uuid-810f902c-c5fa-4e0f-a608-347b7d08843b" d="m216.37332,74.281l1.5,1.93945h-1.94238l-.76172-.98047c-.62988.34473-1.33203.51758-2.10645.51758-1.29492,0-2.37012-.44629-3.22656-1.33887s-1.28516-1.95605-1.28516-3.19043c0-.82422.19922-1.58105.59766-2.27051.39941-.68945.94727-1.2373,1.64453-1.64355.69824-.40625,1.44727-.60938,2.24902-.60938,1.22363,0,2.27344.44141,3.15137,1.32422s1.31641,1.95898,1.31641,3.22852c0,1.16797-.37891,2.17578-1.13672,3.02344Zm-1.02539-1.32422c.34766-.51562.52148-1.08594.52148-1.71094,0-.81641-.27539-1.50977-.82715-2.08008s-1.21777-.85547-2-.85547c-.80566,0-1.48047.27734-2.02344.83203-.54395.55469-.81543,1.25977-.81543,2.11523,0,.95312.34277,1.70703,1.02734,2.26172.53613.43359,1.14453.65039,1.8252.65039.3916,0,.75879-.07617,1.10352-.22949l-1.54395-1.98535h1.95801l.77441,1.00195Z"/><path class="uuid-810f902c-c5fa-4e0f-a608-347b7d08843b" d="m219.03152,66.92162h1.64648v5.57324c0,.48047.04199.82031.12598,1.01953.08398.19824.22266.35742.41602.47656s.42676.17871.7002.17871c.28906,0,.53809-.06641.74707-.19922s.35352-.30176.43359-.50586c.08008-.20508.12012-.59668.12012-1.17383v-5.36914h1.64648v5.13867c0,.86719-.04883,1.46875-.14648,1.80469s-.28418.66016-.55957.97266-.59277.54395-.95215.69434-.77734.22559-1.25391.22559c-.625,0-1.16895-.14355-1.63184-.43066s-.79395-.64648-.99316-1.07812-.29883-1.16113-.29883-2.18848v-5.13867Z"/><path class="uuid-810f902c-c5fa-4e0f-a608-347b7d08843b" d="m229.03934,66.92162h1.66309l3.31543,8.61914h-1.70508l-.6748-1.77539h-3.5166l-.70117,1.77539h-1.70508l3.32422-8.61914Zm.8418,2.28516l-1.15625,2.95898h2.30566l-1.14941-2.95898Z"/><path class="uuid-810f902c-c5fa-4e0f-a608-347b7d08843b" d="m235.21512,66.92162h1.64062v7.05469h2.39062v1.56445h-4.03125v-8.61914Z"/><path class="uuid-810f902c-c5fa-4e0f-a608-347b7d08843b" d="m240.36941,66.92162h1.62891v8.61914h-1.62891v-8.61914Z"/><path class="uuid-810f902c-c5fa-4e0f-a608-347b7d08843b" d="m243.08914,66.92162h4.76367v1.61719h-1.57031v7.00195h-1.66406v-7.00195h-1.5293v-1.61719Z"/><path class="uuid-810f902c-c5fa-4e0f-a608-347b7d08843b" d="m248.67019,66.92162h1.76172l1.60742,3.10059,1.60059-3.10059h1.73926l-2.52246,4.88672v3.73242h-1.65234v-3.73242l-2.53418-4.88672Z"/><path class="uuid-810f902c-c5fa-4e0f-a608-347b7d08843b" d="m221.77762,79.0935l-1.21484,1.07227c-.42676-.59375-.86133-.89062-1.30371-.89062-.21484,0-.39062.05762-.52832.17285-.13672.11523-.20508.24512-.20508.38965s.04883.28125.14648.41016c.13281.17188.53418.54102,1.20312,1.10742.62598.52344,1.00586.85352,1.13867.99023.33301.33594.56836.65723.70801.96387.13867.30664.20801.6416.20801,1.00488,0,.70703-.24414,1.29102-.7334,1.75195-.48828.46094-1.12598.69141-1.91211.69141-.61426,0-1.14844-.15039-1.60449-.45117-.45508-.30078-.8457-.77344-1.16992-1.41797l1.37891-.83203c.41504.76172.89258,1.14258,1.43164,1.14258.28223,0,.51855-.08203.71094-.24609.19141-.16406.28711-.35352.28711-.56836,0-.19531-.07227-.39062-.2168-.58594-.14551-.19531-.46387-.49414-.95703-.89648-.93945-.76562-1.5459-1.35645-1.81934-1.77246-.27441-.41602-.41113-.83105-.41113-1.24512,0-.59766.22754-1.11035.68359-1.53809.45508-.42773,1.01758-.6416,1.68652-.6416.42969,0,.83984.09961,1.22852.29883.38965.19922.81055.5625,1.26465,1.08984Z"/><path class="uuid-810f902c-c5fa-4e0f-a608-347b7d08843b" d="m223.51004,77.92162h1.64062v7.05469h2.39062v1.56445h-4.03125v-8.61914Z"/><path class="uuid-810f902c-c5fa-4e0f-a608-347b7d08843b" d="m228.72781,77.92162h4.70508v1.60547h-3.07617v1.55859h3.07617v1.57617h-3.07617v2.26758h3.07617v1.61133h-4.70508v-8.61914Z"/><path class="uuid-810f902c-c5fa-4e0f-a608-347b7d08843b" d="m235.22879,77.92162h4.70508v1.60547h-3.07617v1.55859h3.07617v1.57617h-3.07617v2.26758h3.07617v1.61133h-4.70508v-8.61914Z"/><path class="uuid-810f902c-c5fa-4e0f-a608-347b7d08843b" d="m241.72391,77.92162h1.74023c.94141,0,1.62012.08691,2.03613.26074s.74414.45508.98438.84375.36035.85449.36035,1.39746c0,.60156-.15723,1.10156-.47168,1.5s-.74121.67578-1.28027.83203c-.31641.08984-.89258.13477-1.72852.13477v3.65039h-1.64062v-8.61914Zm1.64062,3.36914h.52148c.41016,0,.69531-.0293.85547-.08789s.28613-.15625.37793-.29102c.0918-.13574.1377-.29883.1377-.49121,0-.33301-.12891-.57617-.38672-.72852-.1875-.11426-.53516-.1709-1.04297-.1709h-.46289v1.76953Z"/><path class="uuid-810f902c-c5fa-4e0f-a608-347b7d08843b" d="m162.1531,158.20092l-1.82227,1.6084c-.64062-.89062-1.29199-1.33594-1.95508-1.33594-.32324,0-.58691.08691-.79199.25977-.20605.17285-.30859.36719-.30859.58398s.07324.42188.21973.61523c.2002.25781.80176.81152,1.80566,1.66113.93848.78516,1.50781,1.28027,1.70801,1.48535.49805.50391.85156.98633,1.06055,1.44531.20801.46094.3125.96289.3125,1.50781,0,1.06055-.36621,1.93652-1.09961,2.62793s-1.68945,1.03711-2.86816,1.03711c-.9209,0-1.72363-.22559-2.40723-.67676-.68262-.45117-1.26758-1.16016-1.75488-2.12695l2.06836-1.24805c.62207,1.14258,1.33789,1.71387,2.14844,1.71387.42188,0,.77734-.12305,1.06445-.36914.28809-.24609.43164-.53027.43164-.85254,0-.29297-.1084-.58594-.32617-.87891-.2168-.29297-.69531-.74121-1.43457-1.34473-1.40918-1.14844-2.31836-2.03418-2.72949-2.65918-.41113-.62305-.61621-1.24609-.61621-1.86719,0-.89648.3418-1.66602,1.02539-2.30664.68359-.64258,1.52637-.96289,2.5293-.96289.64551,0,1.25977.14941,1.84375.44824s1.21582.84375,1.89648,1.63477Z"/><path class="uuid-810f902c-c5fa-4e0f-a608-347b7d08843b" d="m163.60721,156.44311h7.14551v2.42578h-2.35547v10.50293h-2.49609v-10.50293h-2.29395v-2.42578Z"/><path class="uuid-810f902c-c5fa-4e0f-a608-347b7d08843b" d="m172.48807,156.44311h2.60742c1.42773,0,2.44434.12793,3.05078.38184.60547.25586,1.09277.67871,1.46191,1.27051.36816.5918.55273,1.29199.55273,2.10059,0,.84961-.2041,1.56055-.61133,2.13086-.40625.57227-1.02051,1.00391-1.84082,1.29688l3.06348,5.74805h-2.69043l-2.90723-5.47559h-.22559v5.47559h-2.46094v-12.92871Zm2.46094,5.05371h.77148c.78223,0,1.32129-.10254,1.61621-.30859s.44238-.54688.44238-1.02344c0-.28125-.07324-.52734-.21875-.73535-.14648-.20898-.3418-.35938-.58691-.4502-.24609-.09082-.69531-.13672-1.34961-.13672h-.6748v2.6543Z"/><path class="uuid-810f902c-c5fa-4e0f-a608-347b7d08843b" d="m182.77664,156.44311h7.05762v2.4082h-4.61426v2.33789h4.61426v2.36426h-4.61426v3.40137h4.61426v2.41699h-7.05762v-12.92871Z"/><path class="uuid-810f902c-c5fa-4e0f-a608-347b7d08843b" d="m199.23367,158.20092l-1.82227,1.6084c-.64062-.89062-1.29199-1.33594-1.95508-1.33594-.32324,0-.58691.08691-.79199.25977-.20605.17285-.30859.36719-.30859.58398s.07324.42188.21973.61523c.2002.25781.80176.81152,1.80566,1.66113.93848.78516,1.50781,1.28027,1.70801,1.48535.49805.50391.85156.98633,1.06055,1.44531.20801.46094.3125.96289.3125,1.50781,0,1.06055-.36621,1.93652-1.09961,2.62793s-1.68945,1.03711-2.86816,1.03711c-.9209,0-1.72363-.22559-2.40723-.67676-.68262-.45117-1.26758-1.16016-1.75488-2.12695l2.06836-1.24805c.62207,1.14258,1.33789,1.71387,2.14844,1.71387.42188,0,.77734-.12305,1.06445-.36914.28809-.24609.43164-.53027.43164-.85254,0-.29297-.1084-.58594-.32617-.87891-.2168-.29297-.69531-.74121-1.43457-1.34473-1.40918-1.14844-2.31836-2.03418-2.72949-2.65918-.41113-.62305-.61621-1.24609-.61621-1.86719,0-.89648.3418-1.66602,1.02539-2.30664.68359-.64258,1.52637-.96289,2.5293-.96289.64551,0,1.25977.14941,1.84375.44824s1.21582.84375,1.89648,1.63477Z"/><path class="uuid-810f902c-c5fa-4e0f-a608-347b7d08843b" d="m208.76687,158.20092l-1.82227,1.6084c-.64062-.89062-1.29199-1.33594-1.95508-1.33594-.32324,0-.58691.08691-.79199.25977-.20605.17285-.30859.36719-.30859.58398s.07324.42188.21973.61523c.2002.25781.80176.81152,1.80566,1.66113.93848.78516,1.50781,1.28027,1.70801,1.48535.49805.50391.85156.98633,1.06055,1.44531.20801.46094.3125.96289.3125,1.50781,0,1.06055-.36621,1.93652-1.09961,2.62793s-1.68945,1.03711-2.86816,1.03711c-.9209,0-1.72363-.22559-2.40723-.67676-.68262-.45117-1.26758-1.16016-1.75488-2.12695l2.06836-1.24805c.62207,1.14258,1.33789,1.71387,2.14844,1.71387.42188,0,.77734-.12305,1.06445-.36914.28809-.24609.43164-.53027.43164-.85254,0-.29297-.1084-.58594-.32617-.87891-.2168-.29297-.69531-.74121-1.43457-1.34473-1.40918-1.14844-2.31836-2.03418-2.72949-2.65918-.41113-.62305-.61621-1.24609-.61621-1.86719,0-.89648.3418-1.66602,1.02539-2.30664.68359-.64258,1.52637-.96289,2.5293-.96289.64551,0,1.25977.14941,1.84375.44824s1.21582.84375,1.89648,1.63477Z"/><path class="uuid-810f902c-c5fa-4e0f-a608-347b7d08843b" d="m149.15896,185.37182v-12.92871h2.0332c1.17871,0,2.04102.07617,2.58691.22852.77441.20508,1.39062.58594,1.84766,1.14258.45801.55664.68652,1.21289.68652,1.96875,0,.49219-.10449.93945-.3125,1.34082s-.5459.77734-1.01465,1.12891c.78516.36914,1.35938.83008,1.72266,1.38477.36328.55273.54492,1.20801.54492,1.96387,0,.72656-.1875,1.38867-.56348,1.98633-.375.59766-.85938,1.04492-1.45117,1.34082-.59277.2959-1.41113.44336-2.45508.44336h-3.625Zm2.46094-10.58203v2.72461h.53809c.59961,0,1.0459-.12598,1.33691-.37793s.43652-.59473.43652-1.02832c0-.4043-.13867-.72461-.41504-.96289-.27637-.23633-.69629-.35547-1.26074-.35547h-.63574Zm0,4.92188v3.31348h.61719c1.02148,0,1.71094-.12891,2.06641-.38672s.5332-.63281.5332-1.125c0-.55664-.20898-.99609-.62598-1.31836s-1.11035-.4834-2.08008-.4834h-.51074Z"/><path class="uuid-810f902c-c5fa-4e0f-a608-347b7d08843b" d="m159.46951,172.44311h2.46973v8.36035c0,.7207.0625,1.22949.18848,1.52832s.33398.53711.625.71582c.28906.17871.63965.26758,1.0498.26758.43359,0,.80664-.09961,1.12012-.29883.31348-.19824.53027-.45215.65039-.75977.12012-.30664.18066-.89355.18066-1.76074v-8.05273h2.46973v7.70801c0,1.30078-.07324,2.20312-.21973,2.70703s-.42676.99023-.83887,1.45898c-.41406.46875-.88965.81641-1.42871,1.04102-.53906.22559-1.16602.33887-1.88086.33887-.9375,0-1.75293-.21582-2.44824-.64551-.69336-.43164-1.19043-.96973-1.48926-1.61719s-.44824-1.74219-.44824-3.2832v-7.70801Z"/><path class="uuid-810f902c-c5fa-4e0f-a608-347b7d08843b" d="m177.90213,174.20092l-1.82227,1.6084c-.64062-.89062-1.29199-1.33594-1.95508-1.33594-.32324,0-.58691.08691-.79199.25977-.20605.17285-.30859.36719-.30859.58398s.07324.42188.21973.61523c.2002.25781.80176.81152,1.80566,1.66113.93848.78516,1.50781,1.28027,1.70801,1.48535.49805.50391.85156.98633,1.06055,1.44531.20801.46094.3125.96289.3125,1.50781,0,1.06055-.36621,1.93652-1.09961,2.62793s-1.68945,1.03711-2.86816,1.03711c-.9209,0-1.72363-.22559-2.40723-.67676-.68262-.45117-1.26758-1.16016-1.75488-2.12695l2.06836-1.24805c.62207,1.14258,1.33789,1.71387,2.14844,1.71387.42188,0,.77734-.12305,1.06445-.36914.28809-.24609.43164-.53027.43164-.85254,0-.29297-.1084-.58594-.32617-.87891-.2168-.29297-.69531-.74121-1.43457-1.34473-1.40918-1.14844-2.31836-2.03418-2.72949-2.65918-.41113-.62305-.61621-1.24609-.61621-1.86719,0-.89648.3418-1.66602,1.02539-2.30664.68359-.64258,1.52637-.96289,2.5293-.96289.64551,0,1.25977.14941,1.84375.44824s1.21582.84375,1.89648,1.63477Z"/><path class="uuid-810f902c-c5fa-4e0f-a608-347b7d08843b" d="m179.35623,172.44311h7.14502v2.42578h-2.35547v10.50293h-2.49561v-10.50293h-2.29395v-2.42578Z"/><path class="uuid-810f902c-c5fa-4e0f-a608-347b7d08843b" d="m188.16141,172.44311h7.05762v2.4082h-4.61426v2.33789h4.61426v2.36426h-4.61426v3.40137h4.61426v2.41699h-7.05762v-12.92871Z"/><path class="uuid-810f902c-c5fa-4e0f-a608-347b7d08843b" d="m197.9573,172.44311h2.60742c1.42773,0,2.44434.12793,3.05078.38184.60547.25586,1.09277.67871,1.46191,1.27051.36816.5918.55273,1.29199.55273,2.10059,0,.84961-.2041,1.56055-.61133,2.13086-.40625.57227-1.02051,1.00391-1.84082,1.29688l3.06348,5.74805h-2.69043l-2.90723-5.47559h-.22559v5.47559h-2.46094v-12.92871Zm2.46094,5.05371h.77148c.78223,0,1.32129-.10254,1.61621-.30859s.44238-.54688.44238-1.02344c0-.28125-.07324-.52734-.21875-.73535-.14648-.20898-.3418-.35938-.58691-.4502-.24609-.09082-.69531-.13672-1.34961-.13672h-.6748v2.6543Z"/><path class="uuid-810f902c-c5fa-4e0f-a608-347b7d08843b" d="m214.97586,174.20092l-1.82227,1.6084c-.64062-.89062-1.29199-1.33594-1.95508-1.33594-.32324,0-.58691.08691-.79199.25977-.20605.17285-.30859.36719-.30859.58398s.07324.42188.21973.61523c.2002.25781.80176.81152,1.80566,1.66113.93848.78516,1.50781,1.28027,1.70801,1.48535.49805.50391.85156.98633,1.06055,1.44531.20801.46094.3125.96289.3125,1.50781,0,1.06055-.36621,1.93652-1.09961,2.62793s-1.68945,1.03711-2.86816,1.03711c-.9209,0-1.72363-.22559-2.40723-.67676-.68262-.45117-1.26758-1.16016-1.75488-2.12695l2.06836-1.24805c.62207,1.14258,1.33789,1.71387,2.14844,1.71387.42188,0,.77734-.12305,1.06445-.36914.28809-.24609.43164-.53027.43164-.85254,0-.29297-.1084-.58594-.32617-.87891-.2168-.29297-.69531-.74121-1.43457-1.34473-1.40918-1.14844-2.31836-2.03418-2.72949-2.65918-.41113-.62305-.61621-1.24609-.61621-1.86719,0-.89648.3418-1.66602,1.02539-2.30664.68359-.64258,1.52637-.96289,2.5293-.96289.64551,0,1.25977.14941,1.84375.44824s1.21582.84375,1.89648,1.63477Z"/><path class="uuid-810f902c-c5fa-4e0f-a608-347b7d08843b" d="m239.41141,222.7185h1.74023c.94141,0,1.62012.08691,2.03613.26074s.74414.45508.98438.84375.36035.85449.36035,1.39746c0,.60156-.15723,1.10156-.47168,1.5s-.74121.67578-1.28027.83203c-.31641.08984-.89258.13477-1.72852.13477v3.65039h-1.64062v-8.61914Zm1.64062,3.36914h.52148c.41016,0,.69531-.0293.85547-.08789s.28613-.15625.37793-.29102c.0918-.13574.1377-.29883.1377-.49121,0-.33301-.12891-.57617-.38672-.72852-.1875-.11426-.53516-.1709-1.04297-.1709h-.46289v1.76953Z"/><path class="uuid-810f902c-c5fa-4e0f-a608-347b7d08843b" d="m245.89578,222.7185h1.66406v3.25195h2.87695v-3.25195h1.6582v8.61914h-1.6582v-3.7793h-2.87695v3.7793h-1.66406v-8.61914Z"/><path class="uuid-810f902c-c5fa-4e0f-a608-347b7d08843b" d="m253.33523,222.7185h1.76172l1.60742,3.10059,1.60059-3.10059h1.73926l-2.52246,4.88672v3.73242h-1.65234v-3.73242l-2.53418-4.88672Z"/><path class="uuid-810f902c-c5fa-4e0f-a608-347b7d08843b" d="m265.6575,223.89037l-1.21484,1.07227c-.42676-.59375-.86133-.89062-1.30371-.89062-.21484,0-.39062.05762-.52832.17285-.13672.11523-.20508.24512-.20508.38965s.04883.28125.14648.41016c.13281.17188.53418.54102,1.20312,1.10742.62598.52344,1.00586.85352,1.13867.99023.33301.33594.56836.65723.70801.96387.13867.30664.20801.6416.20801,1.00488,0,.70703-.24414,1.29102-.7334,1.75195-.48828.46094-1.12598.69141-1.91211.69141-.61426,0-1.14844-.15039-1.60449-.45117-.45508-.30078-.8457-.77344-1.16992-1.41797l1.37891-.83203c.41504.76172.89258,1.14258,1.43164,1.14258.28223,0,.51855-.08203.71094-.24609.19141-.16406.28711-.35352.28711-.56836,0-.19531-.07227-.39062-.2168-.58594-.14551-.19531-.46387-.49414-.95703-.89648-.93945-.76562-1.5459-1.35645-1.81934-1.77246-.27441-.41602-.41113-.83105-.41113-1.24512,0-.59766.22754-1.11035.68359-1.53809.45508-.42773,1.01758-.6416,1.68652-.6416.42969,0,.83984.09961,1.22852.29883.38965.19922.81055.5625,1.26465,1.08984Z"/><path class="uuid-810f902c-c5fa-4e0f-a608-347b7d08843b" d="m267.35184,222.7185h1.62891v8.61914h-1.62891v-8.61914Z"/><path class="uuid-810f902c-c5fa-4e0f-a608-347b7d08843b" d="m278.88699,224.23315l-1.14746,1.09375c-.78027-.8252-1.65918-1.2373-2.63477-1.2373-.82324,0-1.5166.28125-2.08105.84473-.56348.5625-.8457,1.25684-.8457,2.08203,0,.5752.125,1.08496.375,1.53125.24902.44531.60254.79492,1.05957,1.0498.45605.25391.96387.38086,1.52148.38086.47656,0,.91113-.08887,1.30566-.2666s.82715-.50195,1.2998-.9707l1.1123,1.16016c-.63672.62207-1.23828,1.05273-1.80469,1.29297s-1.21289.36035-1.93945.36035c-1.33984,0-2.43652-.4248-3.29004-1.27441s-1.28027-1.93848-1.28027-3.2666c0-.85938.19434-1.62305.58301-2.29102s.94531-1.20508,1.66992-1.61133,1.50488-.60938,2.34082-.60938c.71094,0,1.39551.15039,2.05371.4502.6582.30078,1.22559.72754,1.70215,1.28125Z"/><path class="uuid-810f902c-c5fa-4e0f-a608-347b7d08843b" d="m282.89773,222.7185h1.66309l3.31543,8.61914h-1.70508l-.6748-1.77539h-3.5166l-.70117,1.77539h-1.70508l3.32422-8.61914Zm.8418,2.28516l-1.15625,2.95898h2.30566l-1.14941-2.95898Z"/><path class="uuid-810f902c-c5fa-4e0f-a608-347b7d08843b" d="m289.07351,222.7185h1.64062v7.05469h2.39062v1.56445h-4.03125v-8.61914Z"/><path class="uuid-810f902c-c5fa-4e0f-a608-347b7d08843b" d="m243.95437,233.7185h1.66309l3.31543,8.61914h-1.70508l-.6748-1.77539h-3.5166l-.70117,1.77539h-1.70508l3.32422-8.61914Zm.8418,2.28516l-1.15625,2.95898h2.30566l-1.14941-2.95898Z"/><path class="uuid-810f902c-c5fa-4e0f-a608-347b7d08843b" d="m257.71316,235.23315l-1.14746,1.09375c-.78027-.8252-1.65918-1.2373-2.63477-1.2373-.82324,0-1.5166.28125-2.08105.84473-.56348.5625-.8457,1.25684-.8457,2.08203,0,.5752.125,1.08496.375,1.53125.24902.44531.60254.79492,1.05957,1.0498.45605.25391.96387.38086,1.52148.38086.47656,0,.91113-.08887,1.30566-.2666s.82715-.50195,1.2998-.9707l1.1123,1.16016c-.63672.62207-1.23828,1.05273-1.80469,1.29297s-1.21289.36035-1.93945.36035c-1.33984,0-2.43652-.4248-3.29004-1.27441s-1.28027-1.93848-1.28027-3.2666c0-.85938.19434-1.62305.58301-2.29102s.94531-1.20508,1.66992-1.61133,1.50488-.60938,2.34082-.60938c.71094,0,1.39551.15039,2.05371.4502.6582.30078,1.22559.72754,1.70215,1.28125Z"/><path class="uuid-810f902c-c5fa-4e0f-a608-347b7d08843b" d="m258.56863,233.7185h4.76367v1.61719h-1.57031v7.00195h-1.66406v-7.00195h-1.5293v-1.61719Z"/><path class="uuid-810f902c-c5fa-4e0f-a608-347b7d08843b" d="m264.39871,233.7185h1.62891v8.61914h-1.62891v-8.61914Z"/><path class="uuid-810f902c-c5fa-4e0f-a608-347b7d08843b" d="m267.1907,233.7185h1.68652l2.16895,6.12305,2.2002-6.12305h1.68457l-3.10547,8.61914h-1.58203l-3.05273-8.61914Z"/><path class="uuid-810f902c-c5fa-4e0f-a608-347b7d08843b" d="m276.09012,233.7185h1.62891v8.61914h-1.62891v-8.61914Z"/><path class="uuid-810f902c-c5fa-4e0f-a608-347b7d08843b" d="m278.80984,233.7185h4.76367v1.61719h-1.57031v7.00195h-1.66406v-7.00195h-1.5293v-1.61719Z"/><path class="uuid-810f902c-c5fa-4e0f-a608-347b7d08843b" d="m284.39187,233.7185h1.76172l1.60742,3.10059,1.60059-3.10059h1.73926l-2.52246,4.88672v3.73242h-1.65234v-3.73242l-2.53418-4.88672Z"/><path class="uuid-810f902c-c5fa-4e0f-a608-347b7d08843b" d="m144.13894,267.13158h1.59863l1.99805,6.01172,2.0166-6.01172h1.59668l1.44629,8.61914h-1.58691l-.92383-5.44336-1.83105,5.44336h-1.44629l-1.81445-5.44336-.94629,5.44336h-1.59961l1.49219-8.61914Z"/><path class="uuid-810f902c-c5fa-4e0f-a608-347b7d08843b" d="m154.16238,267.13158h1.62891v8.61914h-1.62891v-8.61914Z"/><path class="uuid-810f902c-c5fa-4e0f-a608-347b7d08843b" d="m157.78445,267.13158h1.57422l3.6875,5.67188v-5.67188h1.64062v8.61914h-1.57812l-3.68359-5.6543v5.6543h-1.64062v-8.61914Z"/><path class="uuid-810f902c-c5fa-4e0f-a608-347b7d08843b" d="m166.74051,267.13158h1.94336c1.25293,0,2.18359.15527,2.79297.46582.6084.31055,1.11035.81543,1.50391,1.51465.39453.69922.5918,1.51562.5918,2.44922,0,.66406-.11035,1.27441-.33105,1.83105s-.52441,1.01855-.91309,1.38574-.80859.62109-1.26172.76172c-.45215.14062-1.2373.21094-2.35352.21094h-1.97266v-8.61914Zm1.62891,1.58203v5.4375h.76172c.75,0,1.29395-.08594,1.63184-.25781s.61426-.46191.8291-.86816c.21484-.40723.32227-.90723.32227-1.50195,0-.91504-.25586-1.625-.76758-2.12891-.46094-.4541-1.20117-.68066-2.2207-.68066h-.55664Z"/><path class="uuid-810f902c-c5fa-4e0f-a608-347b7d08843b" d="m175.21805,267.13158h4.27734v1.59961h-2.64844v1.56445h2.64844v1.57617h-2.64844v3.87891h-1.62891v-8.61914Z"/><path class="uuid-810f902c-c5fa-4e0f-a608-347b7d08843b" d="m181.02176,267.13158h1.64648v5.57324c0,.48047.04199.82031.12598,1.01953.08398.19824.22266.35742.41602.47656s.42676.17871.7002.17871c.28906,0,.53809-.06641.74707-.19922s.35352-.30176.43359-.50586c.08008-.20508.12012-.59668.12012-1.17383v-5.36914h1.64648v5.13867c0,.86719-.04883,1.46875-.14648,1.80469s-.28418.66016-.55957.97266-.59277.54395-.95215.69434-.77734.22559-1.25391.22559c-.625,0-1.16895-.14355-1.63184-.43066s-.79395-.64648-.99316-1.07812-.29883-1.16113-.29883-2.18848v-5.13867Z"/><path class="uuid-810f902c-c5fa-4e0f-a608-347b7d08843b" d="m188.85965,267.13158h1.64062v7.05469h2.39062v1.56445h-4.03125v-8.61914Z"/><path class="uuid-810f902c-c5fa-4e0f-a608-347b7d08843b" d="m194.07742,267.13158h1.57422l3.6875,5.67188v-5.67188h1.64062v8.61914h-1.57812l-3.68359-5.6543v5.6543h-1.64062v-8.61914Z"/><path class="uuid-810f902c-c5fa-4e0f-a608-347b7d08843b" d="m203.03348,267.13158h4.70508v1.60547h-3.07617v1.55859h3.07617v1.57617h-3.07617v2.26758h3.07617v1.61133h-4.70508v-8.61914Z"/><path class="uuid-810f902c-c5fa-4e0f-a608-347b7d08843b" d="m214.02371,268.30346l-1.21484,1.07227c-.42676-.59375-.86133-.89062-1.30371-.89062-.21484,0-.39062.05762-.52832.17285-.13672.11523-.20508.24512-.20508.38965s.04883.28125.14648.41016c.13281.17188.53418.54102,1.20312,1.10742.62598.52344,1.00586.85352,1.13867.99023.33301.33594.56836.65723.70801.96387.13867.30664.20801.6416.20801,1.00488,0,.70703-.24414,1.29102-.7334,1.75195-.48828.46094-1.12598.69141-1.91211.69141-.61426,0-1.14844-.15039-1.60449-.45117-.45508-.30078-.8457-.77344-1.16992-1.41797l1.37891-.83203c.41504.76172.89258,1.14258,1.43164,1.14258.28223,0,.51855-.08203.71094-.24609.19141-.16406.28711-.35352.28711-.56836,0-.19531-.07227-.39062-.2168-.58594-.14551-.19531-.46387-.49414-.95703-.89648-.93945-.76562-1.5459-1.35645-1.81934-1.77246-.27441-.41602-.41113-.83105-.41113-1.24512,0-.59766.22754-1.11035.68359-1.53809.45508-.42773,1.01758-.6416,1.68652-.6416.42969,0,.83984.09961,1.22852.29883.38965.19922.81055.5625,1.26465,1.08984Z"/><path class="uuid-810f902c-c5fa-4e0f-a608-347b7d08843b" d="m220.39969,268.30346l-1.21484,1.07227c-.42676-.59375-.86133-.89062-1.30371-.89062-.21484,0-.39062.05762-.52832.17285-.13672.11523-.20508.24512-.20508.38965s.04883.28125.14648.41016c.13281.17188.53418.54102,1.20312,1.10742.62598.52344,1.00586.85352,1.13867.99023.33301.33594.56836.65723.70801.96387.13867.30664.20801.6416.20801,1.00488,0,.70703-.24414,1.29102-.7334,1.75195-.48828.46094-1.12598.69141-1.91211.69141-.61426,0-1.14844-.15039-1.60449-.45117-.45508-.30078-.8457-.77344-1.16992-1.41797l1.37891-.83203c.41504.76172.89258,1.14258,1.43164,1.14258.28223,0,.51855-.08203.71094-.24609.19141-.16406.28711-.35352.28711-.56836,0-.19531-.07227-.39062-.2168-.58594-.14551-.19531-.46387-.49414-.95703-.89648-.93945-.76562-1.5459-1.35645-1.81934-1.77246-.27441-.41602-.41113-.83105-.41113-1.24512,0-.59766.22754-1.11035.68359-1.53809.45508-.42773,1.01758-.6416,1.68652-.6416.42969,0,.83984.09961,1.22852.29883.38965.19922.81055.5625,1.26465,1.08984Z"/><path class="uuid-810f902c-c5fa-4e0f-a608-347b7d08843b" d="m151.55496,278.13158h1.74023c.94141,0,1.62012.08691,2.03613.26074s.74414.45508.98438.84375.36035.85449.36035,1.39746c0,.60156-.15723,1.10156-.47168,1.5s-.74121.67578-1.28027.83203c-.31641.08984-.89258.13477-1.72852.13477v3.65039h-1.64062v-8.61914Zm1.64062,3.36914h.52148c.41016,0,.69531-.0293.85547-.08789s.28613-.15625.37793-.29102c.0918-.13574.1377-.29883.1377-.49121,0-.33301-.12891-.57617-.38672-.72852-.1875-.11426-.53516-.1709-1.04297-.1709h-.46289v1.76953Z"/><path class="uuid-810f902c-c5fa-4e0f-a608-347b7d08843b" d="m158.09598,278.13158h1.73828c.95215,0,1.62988.08496,2.0332.25488.4043.16992.72949.45215.97461.84668.24609.39453.36914.86133.36914,1.40039,0,.56641-.13574,1.04004-.40723,1.4209s-.68066.66895-1.22754.86426l2.04199,3.83203h-1.79395l-1.9375-3.65039h-.15039v3.65039h-1.64062v-8.61914Zm1.64062,3.36914h.51367c.52246,0,.88184-.06836,1.07812-.20605.19629-.13672.29492-.36426.29492-.68164,0-.18848-.04883-.35156-.14648-.49121-.09668-.13867-.22754-.23828-.39062-.2998-.16406-.06055-.46387-.09082-.89941-.09082h-.4502v1.76953Z"/><path class="uuid-810f902c-c5fa-4e0f-a608-347b7d08843b" d="m167.81961,278.13158h1.66309l3.31543,8.61914h-1.70508l-.6748-1.77539h-3.5166l-.70117,1.77539h-1.70508l3.32422-8.61914Zm.8418,2.28516l-1.15625,2.95898h2.30566l-1.14941-2.95898Z"/><path class="uuid-810f902c-c5fa-4e0f-a608-347b7d08843b" d="m181.5784,279.64623l-1.14746,1.09375c-.78027-.8252-1.65918-1.2373-2.63477-1.2373-.82324,0-1.5166.28125-2.08105.84473-.56348.5625-.8457,1.25684-.8457,2.08203,0,.5752.125,1.08496.375,1.53125.24902.44531.60254.79492,1.05957,1.0498.45605.25391.96387.38086,1.52148.38086.47656,0,.91113-.08887,1.30566-.2666s.82715-.50195,1.2998-.9707l1.1123,1.16016c-.63672.62207-1.23828,1.05273-1.80469,1.29297s-1.21289.36035-1.93945.36035c-1.33984,0-2.43652-.4248-3.29004-1.27441s-1.28027-1.93848-1.28027-3.2666c0-.85938.19434-1.62305.58301-2.29102s.94531-1.20508,1.66992-1.61133,1.50488-.60938,2.34082-.60938c.71094,0,1.39551.15039,2.05371.4502.6582.30078,1.22559.72754,1.70215,1.28125Z"/><path class="uuid-810f902c-c5fa-4e0f-a608-347b7d08843b" d="m182.43387,278.13158h4.76367v1.61719h-1.57031v7.00195h-1.66406v-7.00195h-1.5293v-1.61719Z"/><path class="uuid-810f902c-c5fa-4e0f-a608-347b7d08843b" d="m188.26394,278.13158h1.62891v8.61914h-1.62891v-8.61914Z"/><path class="uuid-810f902c-c5fa-4e0f-a608-347b7d08843b" d="m199.7991,279.64623l-1.14746,1.09375c-.78027-.8252-1.65918-1.2373-2.63477-1.2373-.82324,0-1.5166.28125-2.08105.84473-.56348.5625-.8457,1.25684-.8457,2.08203,0,.5752.125,1.08496.375,1.53125.24902.44531.60254.79492,1.05957,1.0498.45605.25391.96387.38086,1.52148.38086.47656,0,.91113-.08887,1.30566-.2666s.82715-.50195,1.2998-.9707l1.1123,1.16016c-.63672.62207-1.23828,1.05273-1.80469,1.29297s-1.21289.36035-1.93945.36035c-1.33984,0-2.43652-.4248-3.29004-1.27441s-1.28027-1.93848-1.28027-3.2666c0-.85938.19434-1.62305.58301-2.29102s.94531-1.20508,1.66992-1.61133,1.50488-.60938,2.34082-.60938c.71094,0,1.39551.15039,2.05371.4502.6582.30078,1.22559.72754,1.70215,1.28125Z"/><path class="uuid-810f902c-c5fa-4e0f-a608-347b7d08843b" d="m201.15164,278.13158h4.70508v1.60547h-3.07617v1.55859h3.07617v1.57617h-3.07617v2.26758h3.07617v1.61133h-4.70508v-8.61914Z"/><path class="uuid-810f902c-c5fa-4e0f-a608-347b7d08843b" d="m212.14187,279.30346l-1.21484,1.07227c-.42676-.59375-.86133-.89062-1.30371-.89062-.21484,0-.39062.05762-.52832.17285-.13672.11523-.20508.24512-.20508.38965s.04883.28125.14648.41016c.13281.17188.53418.54102,1.20312,1.10742.62598.52344,1.00586.85352,1.13867.99023.33301.33594.56836.65723.70801.96387.13867.30664.20801.6416.20801,1.00488,0,.70703-.24414,1.29102-.7334,1.75195-.48828.46094-1.12598.69141-1.91211.69141-.61426,0-1.14844-.15039-1.60449-.45117-.45508-.30078-.8457-.77344-1.16992-1.41797l1.37891-.83203c.41504.76172.89258,1.14258,1.43164,1.14258.28223,0,.51855-.08203.71094-.24609.19141-.16406.28711-.35352.28711-.56836,0-.19531-.07227-.39062-.2168-.58594-.14551-.19531-.46387-.49414-.95703-.89648-.93945-.76562-1.5459-1.35645-1.81934-1.77246-.27441-.41602-.41113-.83105-.41113-1.24512,0-.59766.22754-1.11035.68359-1.53809.45508-.42773,1.01758-.6416,1.68652-.6416.42969,0,.83984.09961,1.22852.29883.38965.19922.81055.5625,1.26465,1.08984Z"/><path class="uuid-810f902c-c5fa-4e0f-a608-347b7d08843b" d="m57.6907,142.62963h1.59863l1.99805,6.01172,2.0166-6.01172h1.59668l1.44629,8.61914h-1.58691l-.92383-5.44336-1.83105,5.44336h-1.44629l-1.81445-5.44336-.94629,5.44336h-1.59961l1.49219-8.61914Z"/><path class="uuid-810f902c-c5fa-4e0f-a608-347b7d08843b" d="m67.78348,142.62963h4.70508v1.60547h-3.07617v1.55859h3.07617v1.57617h-3.07617v2.26758h3.07617v1.61133h-4.70508v-8.61914Z"/><path class="uuid-810f902c-c5fa-4e0f-a608-347b7d08843b" d="m74.28348,142.62963h1.57422l3.6875,5.67188v-5.67188h1.64062v8.61914h-1.57812l-3.68359-5.6543v5.6543h-1.64062v-8.61914Z"/><path class="uuid-810f902c-c5fa-4e0f-a608-347b7d08843b" d="m82.30496,142.62963h4.76367v1.61719h-1.57031v7.00195h-1.66406v-7.00195h-1.5293v-1.61719Z"/><path class="uuid-810f902c-c5fa-4e0f-a608-347b7d08843b" d="m90.38406,142.62963h1.66309l3.31543,8.61914h-1.70508l-.6748-1.77539h-3.5166l-.70117,1.77539h-1.70508l3.32422-8.61914Zm.8418,2.28516l-1.15625,2.95898h2.30566l-1.14941-2.95898Z"/><path class="uuid-810f902c-c5fa-4e0f-a608-347b7d08843b" d="m96.55984,142.62963h1.64062v7.05469h2.39062v1.56445h-4.03125v-8.61914Z"/><path class="uuid-810f902c-c5fa-4e0f-a608-347b7d08843b" d="m42.91629,153.62963h1.66406v3.25195h2.87695v-3.25195h1.6582v8.61914h-1.6582v-3.7793h-2.87695v3.7793h-1.66406v-8.61914Z"/><path class="uuid-810f902c-c5fa-4e0f-a608-347b7d08843b" d="m51.17312,153.62963h4.70508v1.60547h-3.07617v1.55859h3.07617v1.57617h-3.07617v2.26758h3.07617v1.61133h-4.70508v-8.61914Z"/><path class="uuid-810f902c-c5fa-4e0f-a608-347b7d08843b" d="m60.17898,153.62963h1.66309l3.31543,8.61914h-1.70508l-.6748-1.77539h-3.5166l-.70117,1.77539h-1.70508l3.32422-8.61914Zm.8418,2.28516l-1.15625,2.95898h2.30566l-1.14941-2.95898Z"/><path class="uuid-810f902c-c5fa-4e0f-a608-347b7d08843b" d="m66.35379,153.62963h1.64062v7.05469h2.39062v1.56445h-4.03125v-8.61914Z"/><path class="uuid-810f902c-c5fa-4e0f-a608-347b7d08843b" d="m70.38016,153.62963h4.76367v1.61719h-1.57031v7.00195h-1.66406v-7.00195h-1.5293v-1.61719Z"/><path class="uuid-810f902c-c5fa-4e0f-a608-347b7d08843b" d="m76.26297,153.62963h1.66406v3.25195h2.87695v-3.25195h1.6582v8.61914h-1.6582v-3.7793h-2.87695v3.7793h-1.66406v-8.61914Z"/><path class="uuid-810f902c-c5fa-4e0f-a608-347b7d08843b" d="m92.41141,155.14428l-1.14746,1.09375c-.78027-.8252-1.65918-1.2373-2.63477-1.2373-.82324,0-1.5166.28125-2.08105.84473-.56348.5625-.8457,1.25684-.8457,2.08203,0,.5752.125,1.08496.375,1.53125.24902.44531.60254.79492,1.05957,1.0498.45605.25391.96387.38086,1.52148.38086.47656,0,.91113-.08887,1.30566-.2666s.82715-.50195,1.2998-.9707l1.1123,1.16016c-.63672.62207-1.23828,1.05273-1.80469,1.29297s-1.21289.36035-1.93945.36035c-1.33984,0-2.43652-.4248-3.29004-1.27441s-1.28027-1.93848-1.28027-3.2666c0-.85938.19434-1.62305.58301-2.29102s.94531-1.20508,1.66992-1.61133,1.50488-.60938,2.34082-.60938c.71094,0,1.39551.15039,2.05371.4502.6582.30078,1.22559.72754,1.70215,1.28125Z"/><path class="uuid-810f902c-c5fa-4e0f-a608-347b7d08843b" d="m96.42312,153.62963h1.66309l3.31543,8.61914h-1.70508l-.6748-1.77539h-3.5166l-.70117,1.77539h-1.70508l3.32422-8.61914Zm.8418,2.28516l-1.15625,2.95898h2.30566l-1.14941-2.95898Z"/><path class="uuid-810f902c-c5fa-4e0f-a608-347b7d08843b" d="m102.65555,153.62963h1.73828c.95215,0,1.62988.08496,2.0332.25488.4043.16992.72949.45215.97461.84668.24609.39453.36914.86133.36914,1.40039,0,.56641-.13574,1.04004-.40723,1.4209s-.68066.66895-1.22754.86426l2.04199,3.83203h-1.79395l-1.9375-3.65039h-.15039v3.65039h-1.64062v-8.61914Zm1.64062,3.36914h.51367c.52246,0,.88184-.06836,1.07812-.20605.19629-.13672.29492-.36426.29492-.68164,0-.18848-.04883-.35156-.14648-.49121-.09668-.13867-.22754-.23828-.39062-.2998-.16406-.06055-.46387-.09082-.89941-.09082h-.4502v1.76953Z"/><path class="uuid-810f902c-c5fa-4e0f-a608-347b7d08843b" d="m109.53641,153.62963h4.70508v1.60547h-3.07617v1.55859h3.07617v1.57617h-3.07617v2.26758h3.07617v1.61133h-4.70508v-8.61914Z"/><path class="uuid-810f902c-c5fa-4e0f-a608-347b7d08843b" d="m102.36307,68.0935l-1.21484,1.07227c-.42676-.59375-.86133-.89062-1.30371-.89062-.21484,0-.39062.05762-.52832.17285-.13672.11523-.20508.24512-.20508.38965s.04883.28125.14648.41016c.13281.17188.53418.54102,1.20312,1.10742.62598.52344,1.00586.85352,1.13867.99023.33301.33594.56836.65723.70801.96387.13867.30664.20801.6416.20801,1.00488,0,.70703-.24414,1.29102-.7334,1.75195-.48828.46094-1.12598.69141-1.91211.69141-.61426,0-1.14844-.15039-1.60449-.45117-.45508-.30078-.8457-.77344-1.16992-1.41797l1.37891-.83203c.41504.76172.89258,1.14258,1.43164,1.14258.28223,0,.51855-.08203.71094-.24609.19141-.16406.28711-.35352.28711-.56836,0-.19531-.07227-.39062-.2168-.58594-.14551-.19531-.46387-.49414-.95703-.89648-.93945-.76562-1.5459-1.35645-1.81934-1.77246-.27441-.41602-.41113-.83105-.41113-1.24512,0-.59766.22754-1.11035.68359-1.53809.45508-.42773,1.01758-.6416,1.68652-.6416.42969,0,.83984.09961,1.22852.29883.38965.19922.81055.5625,1.26465,1.08984Z"/><path class="uuid-810f902c-c5fa-4e0f-a608-347b7d08843b" d="m104.01443,66.92162h1.64648v5.57324c0,.48047.04199.82031.12598,1.01953.08398.19824.22266.35742.41602.47656s.42676.17871.7002.17871c.28906,0,.53809-.06641.74707-.19922s.35352-.30176.43359-.50586c.08008-.20508.12012-.59668.12012-1.17383v-5.36914h1.64648v5.13867c0,.86719-.04883,1.46875-.14648,1.80469s-.28418.66016-.55957.97266-.59277.54395-.95215.69434-.77734.22559-1.25391.22559c-.625,0-1.16895-.14355-1.63184-.43066s-.79395-.64648-.99316-1.07812-.29883-1.16113-.29883-2.18848v-5.13867Z"/><path class="uuid-810f902c-c5fa-4e0f-a608-347b7d08843b" d="m111.85135,66.92162h1.74023c.94141,0,1.62012.08691,2.03613.26074s.74414.45508.98438.84375.36035.85449.36035,1.39746c0,.60156-.15723,1.10156-.47168,1.5s-.74121.67578-1.28027.83203c-.31641.08984-.89258.13477-1.72852.13477v3.65039h-1.64062v-8.61914Zm1.64062,3.36914h.52148c.41016,0,.69531-.0293.85547-.08789s.28613-.15625.37793-.29102c.0918-.13574.1377-.29883.1377-.49121,0-.33301-.12891-.57617-.38672-.72852-.1875-.11426-.53516-.1709-1.04297-.1709h-.46289v1.76953Z"/><path class="uuid-810f902c-c5fa-4e0f-a608-347b7d08843b" d="m118.33572,66.92162h1.74023c.94141,0,1.62012.08691,2.03613.26074s.74414.45508.98438.84375.36035.85449.36035,1.39746c0,.60156-.15723,1.10156-.47168,1.5s-.74121.67578-1.28027.83203c-.31641.08984-.89258.13477-1.72852.13477v3.65039h-1.64062v-8.61914Zm1.64062,3.36914h.52148c.41016,0,.69531-.0293.85547-.08789s.28613-.15625.37793-.29102c.0918-.13574.1377-.29883.1377-.49121,0-.33301-.12891-.57617-.38672-.72852-.1875-.11426-.53516-.1709-1.04297-.1709h-.46289v1.76953Z"/><path class="uuid-810f902c-c5fa-4e0f-a608-347b7d08843b" d="m129.02713,66.70483c1.21973,0,2.26758.44141,3.14551,1.32422s1.31641,1.95898,1.31641,3.22852c0,1.25781-.43262,2.32227-1.29883,3.19336s-1.91602,1.30664-3.15137,1.30664c-1.29395,0-2.36914-.44727-3.22461-1.3418-.85645-.89453-1.28418-1.95703-1.28418-3.1875,0-.82422.19922-1.58203.59766-2.27344.39941-.69141.94727-1.23926,1.64453-1.64355.69824-.4043,1.44922-.60645,2.25488-.60645Zm-.01758,1.60547c-.79785,0-1.46875.27734-2.01172.83203-.54395.55469-.81543,1.25977-.81543,2.11523,0,.95312.3418,1.70703,1.02637,2.26172.53223.43359,1.1416.65039,1.83008.65039.77832,0,1.44043-.28125,1.98828-.84375s.82129-1.25586.82129-2.08008c0-.82031-.27539-1.51465-.82715-2.08301s-1.22168-.85254-2.01172-.85254Z"/><path class="uuid-810f902c-c5fa-4e0f-a608-347b7d08843b" d="m135.14139,66.92162h1.73828c.95215,0,1.62988.08496,2.0332.25488.4043.16992.72949.45215.97461.84668.24609.39453.36914.86133.36914,1.40039,0,.56641-.13574,1.04004-.40723,1.4209s-.68066.66895-1.22754.86426l2.04199,3.83203h-1.79395l-1.9375-3.65039h-.15039v3.65039h-1.64062v-8.61914Zm1.64062,3.36914h.51367c.52246,0,.88184-.06836,1.07812-.20605.19629-.13672.29492-.36426.29492-.68164,0-.18848-.04883-.35156-.14648-.49121-.09668-.13867-.22754-.23828-.39062-.2998-.16406-.06055-.46387-.09082-.89941-.09082h-.4502v1.76953Z"/><path class="uuid-810f902c-c5fa-4e0f-a608-347b7d08843b" d="m141.21756,66.92162h4.76367v1.61719h-1.57031v7.00195h-1.66406v-7.00195h-1.5293v-1.61719Z"/><path class="uuid-810f902c-c5fa-4e0f-a608-347b7d08843b" d="m147.04764,66.92162h1.62891v8.61914h-1.62891v-8.61914Z"/><path class="uuid-810f902c-c5fa-4e0f-a608-347b7d08843b" d="m149.83865,66.92162h1.68652l2.16895,6.12305,2.2002-6.12305h1.68457l-3.10547,8.61914h-1.58203l-3.05273-8.61914Z"/><path class="uuid-810f902c-c5fa-4e0f-a608-347b7d08843b" d="m158.80154,66.92162h4.70508v1.60547h-3.07617v1.55859h3.07617v1.57617h-3.07617v2.26758h3.07617v1.61133h-4.70508v-8.61914Z"/><path class="uuid-810f902c-c5fa-4e0f-a608-347b7d08843b" d="m88.47439,77.92162h1.73828c.95215,0,1.62988.08496,2.0332.25488.4043.16992.72949.45215.97461.84668.24609.39453.36914.86133.36914,1.40039,0,.56641-.13574,1.04004-.40723,1.4209s-.68066.66895-1.22754.86426l2.04199,3.83203h-1.79395l-1.9375-3.65039h-.15039v3.65039h-1.64062v-8.61914Zm1.64062,3.36914h.51367c.52246,0,.88184-.06836,1.07812-.20605.19629-.13672.29492-.36426.29492-.68164,0-.18848-.04883-.35156-.14648-.49121-.09668-.13867-.22754-.23828-.39062-.2998-.16406-.06055-.46387-.09082-.89941-.09082h-.4502v1.76953Z"/><path class="uuid-810f902c-c5fa-4e0f-a608-347b7d08843b" d="m95.35525,77.92162h4.70508v1.60547h-3.07617v1.55859h3.07617v1.57617h-3.07617v2.26758h3.07617v1.61133h-4.70508v-8.61914Z"/><path class="uuid-810f902c-c5fa-4e0f-a608-347b7d08843b" d="m101.84939,77.92162h1.64062v7.05469h2.39062v1.56445h-4.03125v-8.61914Z"/><path class="uuid-810f902c-c5fa-4e0f-a608-347b7d08843b" d="m110.03982,77.92162h1.66309l3.31543,8.61914h-1.70508l-.6748-1.77539h-3.5166l-.70117,1.77539h-1.70508l3.32422-8.61914Zm.8418,2.28516l-1.15625,2.95898h2.30566l-1.14941-2.95898Z"/><path class="uuid-810f902c-c5fa-4e0f-a608-347b7d08843b" d="m115.02908,77.92162h4.76367v1.61719h-1.57031v7.00195h-1.66406v-7.00195h-1.5293v-1.61719Z"/><path class="uuid-810f902c-c5fa-4e0f-a608-347b7d08843b" d="m120.85916,77.92162h1.62891v8.61914h-1.62891v-8.61914Z"/><path class="uuid-810f902c-c5fa-4e0f-a608-347b7d08843b" d="m128.51834,77.70483c1.21973,0,2.26758.44141,3.14551,1.32422s1.31641,1.95898,1.31641,3.22852c0,1.25781-.43262,2.32227-1.29883,3.19336s-1.91602,1.30664-3.15137,1.30664c-1.29395,0-2.36914-.44727-3.22461-1.3418-.85645-.89453-1.28418-1.95703-1.28418-3.1875,0-.82422.19922-1.58203.59766-2.27344.39941-.69141.94727-1.23926,1.64453-1.64355.69824-.4043,1.44922-.60645,2.25488-.60645Zm-.01758,1.60547c-.79785,0-1.46875.27734-2.01172.83203-.54395.55469-.81543,1.25977-.81543,2.11523,0,.95312.3418,1.70703,1.02637,2.26172.53223.43359,1.1416.65039,1.83008.65039.77832,0,1.44043-.28125,1.98828-.84375s.82129-1.25586.82129-2.08008c0-.82031-.27539-1.51465-.82715-2.08301s-1.22168-.85254-2.01172-.85254Z"/><path class="uuid-810f902c-c5fa-4e0f-a608-347b7d08843b" d="m134.58182,77.92162h1.57422l3.6875,5.67188v-5.67188h1.64062v8.61914h-1.57812l-3.68359-5.6543v5.6543h-1.64062v-8.61914Z"/><path class="uuid-810f902c-c5fa-4e0f-a608-347b7d08843b" d="m148.08182,79.0935l-1.21484,1.07227c-.42676-.59375-.86133-.89062-1.30371-.89062-.21484,0-.39062.05762-.52832.17285-.13672.11523-.20508.24512-.20508.38965s.04883.28125.14648.41016c.13281.17188.53418.54102,1.20312,1.10742.62598.52344,1.00586.85352,1.13867.99023.33301.33594.56836.65723.70801.96387.13867.30664.20801.6416.20801,1.00488,0,.70703-.24414,1.29102-.7334,1.75195-.48828.46094-1.12598.69141-1.91211.69141-.61426,0-1.14844-.15039-1.60449-.45117-.45508-.30078-.8457-.77344-1.16992-1.41797l1.37891-.83203c.41504.76172.89258,1.14258,1.43164,1.14258.28223,0,.51855-.08203.71094-.24609.19141-.16406.28711-.35352.28711-.56836,0-.19531-.07227-.39062-.2168-.58594-.14551-.19531-.46387-.49414-.95703-.89648-.93945-.76562-1.5459-1.35645-1.81934-1.77246-.27441-.41602-.41113-.83105-.41113-1.24512,0-.59766.22754-1.11035.68359-1.53809.45508-.42773,1.01758-.6416,1.68652-.6416.42969,0,.83984.09961,1.22852.29883.38965.19922.81055.5625,1.26465,1.08984Z"/><path class="uuid-810f902c-c5fa-4e0f-a608-347b7d08843b" d="m149.81424,77.92162h1.66406v3.25195h2.87695v-3.25195h1.6582v8.61914h-1.6582v-3.7793h-2.87695v3.7793h-1.66406v-8.61914Z"/><path class="uuid-810f902c-c5fa-4e0f-a608-347b7d08843b" d="m158.00369,77.92162h1.62891v8.61914h-1.62891v-8.61914Z"/><path class="uuid-810f902c-c5fa-4e0f-a608-347b7d08843b" d="m161.6199,77.92162h1.74023c.94141,0,1.62012.08691,2.03613.26074s.74414.45508.98438.84375.36035.85449.36035,1.39746c0,.60156-.15723,1.10156-.47168,1.5s-.74121.67578-1.28027.83203c-.31641.08984-.89258.13477-1.72852.13477v3.65039h-1.64062v-8.61914Zm1.64062,3.36914h.52148c.41016,0,.69531-.0293.85547-.08789s.28613-.15625.37793-.29102c.0918-.13574.1377-.29883.1377-.49121,0-.33301-.12891-.57617-.38672-.72852-.1875-.11426-.53516-.1709-1.04297-.1709h-.46289v1.76953Z"/><path class="uuid-810f902c-c5fa-4e0f-a608-347b7d08843b" d="m172.79568,79.0935l-1.21484,1.07227c-.42676-.59375-.86133-.89062-1.30371-.89062-.21484,0-.39062.05762-.52832.17285-.13672.11523-.20508.24512-.20508.38965s.04883.28125.14648.41016c.13281.17188.53418.54102,1.20312,1.10742.62598.52344,1.00586.85352,1.13867.99023.33301.33594.56836.65723.70801.96387.13867.30664.20801.6416.20801,1.00488,0,.70703-.24414,1.29102-.7334,1.75195-.48828.46094-1.12598.69141-1.91211.69141-.61426,0-1.14844-.15039-1.60449-.45117-.45508-.30078-.8457-.77344-1.16992-1.41797l1.37891-.83203c.41504.76172.89258,1.14258,1.43164,1.14258.28223,0,.51855-.08203.71094-.24609.19141-.16406.28711-.35352.28711-.56836,0-.19531-.07227-.39062-.2168-.58594-.14551-.19531-.46387-.49414-.95703-.89648-.93945-.76562-1.5459-1.35645-1.81934-1.77246-.27441-.41602-.41113-.83105-.41113-1.24512,0-.59766.22754-1.11035.68359-1.53809.45508-.42773,1.01758-.6416,1.68652-.6416.42969,0,.83984.09961,1.22852.29883.38965.19922.81055.5625,1.26465,1.08984Z"/><path class="uuid-810f902c-c5fa-4e0f-a608-347b7d08843b" d="m50.27127,222.7185h4.70508v1.60547h-3.07617v1.55859h3.07617v1.57617h-3.07617v2.26758h3.07617v1.61133h-4.70508v-8.61914Z"/><path class="uuid-810f902c-c5fa-4e0f-a608-347b7d08843b" d="m56.11209,222.7185h1.8457l1.81152,2.76758,1.81543-2.76758h1.84375l-2.73535,4.17871,2.90723,4.44043h-1.8457l-1.9834-3.03027-1.9834,3.03027h-1.85742l2.91504-4.44336-2.7334-4.17578Z"/><path class="uuid-810f902c-c5fa-4e0f-a608-347b7d08843b" d="m64.77713,222.7185h1.74023c.94141,0,1.62012.08691,2.03613.26074s.74414.45508.98438.84375.36035.85449.36035,1.39746c0,.60156-.15723,1.10156-.47168,1.5s-.74121.67578-1.28027.83203c-.31641.08984-.89258.13477-1.72852.13477v3.65039h-1.64062v-8.61914Zm1.64062,3.36914h.52148c.41016,0,.69531-.0293.85547-.08789s.28613-.15625.37793-.29102c.0918-.13574.1377-.29883.1377-.49121,0-.33301-.12891-.57617-.38672-.72852-.1875-.11426-.53516-.1709-1.04297-.1709h-.46289v1.76953Z"/><path class="uuid-810f902c-c5fa-4e0f-a608-347b7d08843b" d="m71.26736,222.7185h4.70508v1.60547h-3.07617v1.55859h3.07617v1.57617h-3.07617v2.26758h3.07617v1.61133h-4.70508v-8.61914Z"/><path class="uuid-810f902c-c5fa-4e0f-a608-347b7d08843b" d="m77.81912,222.7185h1.73828c.95215,0,1.62988.08496,2.0332.25488.4043.16992.72949.45215.97461.84668.24609.39453.36914.86133.36914,1.40039,0,.56641-.13574,1.04004-.40723,1.4209s-.68066.66895-1.22754.86426l2.04199,3.83203h-1.79395l-1.9375-3.65039h-.15039v3.65039h-1.64062v-8.61914Zm1.64062,3.36914h.51367c.52246,0,.88184-.06836,1.07812-.20605.19629-.13672.29492-.36426.29492-.68164,0-.18848-.04883-.35156-.14648-.49121-.09668-.13867-.22754-.23828-.39062-.2998-.16406-.06055-.46387-.09082-.89941-.09082h-.4502v1.76953Z"/><path class="uuid-810f902c-c5fa-4e0f-a608-347b7d08843b" d="m84.63064,222.7185h1.62891v8.61914h-1.62891v-8.61914Z"/><path class="uuid-810f902c-c5fa-4e0f-a608-347b7d08843b" d="m88.25271,222.7185h4.70508v1.60547h-3.07617v1.55859h3.07617v1.57617h-3.07617v2.26758h3.07617v1.61133h-4.70508v-8.61914Z"/><path class="uuid-810f902c-c5fa-4e0f-a608-347b7d08843b" d="m94.75369,222.7185h1.57422l3.6875,5.67188v-5.67188h1.64062v8.61914h-1.57812l-3.68359-5.6543v5.6543h-1.64062v-8.61914Z"/><path class="uuid-810f902c-c5fa-4e0f-a608-347b7d08843b" d="m111.60135,224.23315l-1.14746,1.09375c-.78027-.8252-1.65918-1.2373-2.63477-1.2373-.82324,0-1.5166.28125-2.08105.84473-.56348.5625-.8457,1.25684-.8457,2.08203,0,.5752.125,1.08496.375,1.53125.24902.44531.60254.79492,1.05957,1.0498.45605.25391.96387.38086,1.52148.38086.47656,0,.91113-.08887,1.30566-.2666s.82715-.50195,1.2998-.9707l1.1123,1.16016c-.63672.62207-1.23828,1.05273-1.80469,1.29297s-1.21289.36035-1.93945.36035c-1.33984,0-2.43652-.4248-3.29004-1.27441s-1.28027-1.93848-1.28027-3.2666c0-.85938.19434-1.62305.58301-2.29102s.94531-1.20508,1.66992-1.61133,1.50488-.60938,2.34082-.60938c.71094,0,1.39551.15039,2.05371.4502.6582.30078,1.22559.72754,1.70215,1.28125Z"/><path class="uuid-810f902c-c5fa-4e0f-a608-347b7d08843b" d="m112.91971,222.7185h1.62891v8.61914h-1.62891v-8.61914Z"/><path class="uuid-810f902c-c5fa-4e0f-a608-347b7d08843b" d="m116.54178,222.7185h1.57422l3.6875,5.67188v-5.67188h1.64062v8.61914h-1.57812l-3.68359-5.6543v5.6543h-1.64062v-8.61914Z"/><path class="uuid-810f902c-c5fa-4e0f-a608-347b7d08843b" d="m133.3826,224.12475l-1.15527,1.14258c-.73145-.77344-1.58301-1.16016-2.55664-1.16016-.84863,0-1.55957.28125-2.13184.84375-.57324.5625-.85938,1.24609-.85938,2.05078,0,.83203.29688,1.53711.8916,2.11523s1.32715.86719,2.19922.86719c.56738,0,1.0459-.11914,1.43457-.35742s.70312-.61133.94141-1.11914h-2.49609v-1.54102h4.33594l.01172.36328c0,.75391-.19531,1.46875-.58594,2.14453s-.89648,1.19141-1.51758,1.54688-1.34961.5332-2.18555.5332c-.89453,0-1.69238-.19434-2.39355-.58301s-1.25586-.94238-1.66406-1.66113-.6123-1.49414-.6123-2.32617c0-1.14062.37695-2.13281,1.13086-2.97656.89453-1.00391,2.05859-1.50586,3.49219-1.50586.75,0,1.45117.13867,2.10352.41602.55078.23438,1.08984.63672,1.61719,1.20703Z"/><path class="uuid-810f902c-c5fa-4e0f-a608-347b7d08843b" d="m71.24685,233.7185h1.57422l3.6875,5.67188v-5.67188h1.64062v8.61914h-1.57812l-3.68359-5.6543v5.6543h-1.64062v-8.61914Z"/><path class="uuid-810f902c-c5fa-4e0f-a608-347b7d08843b" d="m82.66971,233.7185h1.66309l3.31543,8.61914h-1.70508l-.6748-1.77539h-3.5166l-.70117,1.77539h-1.70508l3.32422-8.61914Zm.8418,2.28516l-1.15625,2.95898h2.30566l-1.14941-2.95898Z"/><path class="uuid-810f902c-c5fa-4e0f-a608-347b7d08843b" d="m87.65896,233.7185h4.76367v1.61719h-1.57031v7.00195h-1.66406v-7.00195h-1.5293v-1.61719Z"/><path class="uuid-810f902c-c5fa-4e0f-a608-347b7d08843b" d="m93.51834,233.7185h1.64648v5.57324c0,.48047.04199.82031.12598,1.01953.08398.19824.22266.35742.41602.47656s.42676.17871.7002.17871c.28906,0,.53809-.06641.74707-.19922s.35352-.30176.43359-.50586c.08008-.20508.12012-.59668.12012-1.17383v-5.36914h1.64648v5.13867c0,.86719-.04883,1.46875-.14648,1.80469s-.28418.66016-.55957.97266-.59277.54395-.95215.69434-.77734.22559-1.25391.22559c-.625,0-1.16895-.14355-1.63184-.43066s-.79395-.64648-.99316-1.07812-.29883-1.16113-.29883-2.18848v-5.13867Z"/><path class="uuid-810f902c-c5fa-4e0f-a608-347b7d08843b" d="m101.41287,233.7185h1.73828c.95215,0,1.62988.08496,2.0332.25488.4043.16992.72949.45215.97461.84668.24609.39453.36914.86133.36914,1.40039,0,.56641-.13574,1.04004-.40723,1.4209s-.68066.66895-1.22754.86426l2.04199,3.83203h-1.79395l-1.9375-3.65039h-.15039v3.65039h-1.64062v-8.61914Zm1.64062,3.36914h.51367c.52246,0,.88184-.06836,1.07812-.20605.19629-.13672.29492-.36426.29492-.68164,0-.18848-.04883-.35156-.14648-.49121-.09668-.13867-.22754-.23828-.39062-.2998-.16406-.06055-.46387-.09082-.89941-.09082h-.4502v1.76953Z"/><path class="uuid-810f902c-c5fa-4e0f-a608-347b7d08843b" d="m108.29373,233.7185h4.70508v1.60547h-3.07617v1.55859h3.07617v1.57617h-3.07617v2.26758h3.07617v1.61133h-4.70508v-8.61914Z"/></svg>